<svg id="Layer_1" data-name="Layer 1" xmlns="http://www.w3.org/2000/svg" viewBox="0 0 712 340"><defs><style>.cls-1{fill:#fff;}</style></defs><title>FDIC_logo</title><polygon class="cls-1" points="633.56 107.52 633.56 115.83 631.75 115.83 631.75 109.49 631.07 109.49 631.9 107.52 633.56 107.52"/><path class="cls-1" d="M647.62,116.71a3.33,3.33,0,0,0,3.52,3.09,3.85,3.85,0,0,0,2.12-.61c-1.1,2.8-4,1.67-4.61,1.44l-.78,1.53c1,1,7.3,1.57,7.3-4.49,0-.7-.51-4.06-4-4.06v1.49a1.92,1.92,0,0,1,2,1.61c0,.88-1,1.6-2,1.6a1.62,1.62,0,1,1,0-3.21v-1.49A3.33,3.33,0,0,0,647.62,116.71Z" transform="translate(-9.88 -6.62)"/><path class="cls-1" d="M660.7,122.82a4.39,4.39,0,0,1-3.29-1.2l1.1-1.1a4.79,4.79,0,0,0,2,.83c.61,0,1.7-.26,1.7-1.21,0-.45-.41-1.21-2.17-1v-1.44c1.83.16,2.28-.5,2.28-1.11s-.67-1.11-1.51-1.11a2.53,2.53,0,0,0-1.81,1l-1.22-1.22a3.51,3.51,0,0,1,3-1.4c1.82,0,3.19,1.13,3.19,2.53a2.19,2.19,0,0,1-1,1.87,2.3,2.3,0,0,1,1,1.88C663.94,121.54,662.7,122.82,660.7,122.82Z" transform="translate(-9.88 -6.62)"/><path class="cls-1" d="M669.69,122.82a4.39,4.39,0,0,1-3.29-1.2l1.09-1.1a4.83,4.83,0,0,0,2,.83c.6,0,1.7-.26,1.7-1.21,0-.45-.42-1.21-2.17-1v-1.44c1.83.16,2.28-.5,2.28-1.11s-.68-1.11-1.51-1.11a2.53,2.53,0,0,0-1.81,1l-1.22-1.22a3.5,3.5,0,0,1,2.95-1.4c1.83,0,3.2,1.13,3.2,2.53a2.19,2.19,0,0,1-1,1.87,2.3,2.3,0,0,1,1,1.88C672.93,121.54,671.69,122.82,669.69,122.82Z" transform="translate(-9.88 -6.62)"/><path class="cls-1" d="M642.77,177.27V172.5h-.93v5.7h3.09V176h1.54v2.2h3.09v-5.7H651c1.69,0,1.69.87,2.82.87.85,0,1.13-.87,1.74-.87s.8,1.08,1.6,1.08,1-1.08,1.59-1.08.9.87,1.74.87c1.13,0,1.46-.87,3.15-.87a1.33,1.33,0,0,1,1.51,1.51,3.38,3.38,0,1,0,6.75,0v-4.85a3.37,3.37,0,0,0-3.37-3.38V167a2,2,0,0,1,2,2,4,4,0,0,1-.74,2.6,4,4,0,0,1,.74,2.61,2,2,0,0,1-4,0,4,4,0,0,1,.75-2.61,4,4,0,0,1-.75-2.6,2,2,0,0,1,2-2v-1.18a3.38,3.38,0,0,0-3.38,3.38,1.34,1.34,0,0,1-1.51,1.53c-1.69,0-2-.89-3.15-.89-.84,0-1.13.82-1.74.82s-.79-1-1.59-1-1,1-1.6,1-.89-.82-1.74-.82c-1.13,0-1.13.89-2.82.89H640.4v1.81h8.23v4.77H647.4v-2.2H644v2.2Z" transform="translate(-9.88 -6.62)"/><path class="cls-1" d="M700.53,150.16a42.74,42.74,0,0,1-42.75,42.74v-2.13a40.62,40.62,0,1,0-40.61-40.61,40.62,40.62,0,0,0,40.61,40.61v2.13a42.75,42.75,0,1,1,42.75-42.74Z" transform="translate(-9.88 -6.62)"/><path class="cls-1" d="M701.72,150.16a43.94,43.94,0,1,0-43.94,43.93v1a45,45,0,1,1,45-45,45,45,0,0,1-45,45v-1A43.93,43.93,0,0,0,701.72,150.16Z" transform="translate(-9.88 -6.62)"/><path class="cls-1" d="M718.93,150.16a61.15,61.15,0,0,1-61.15,61.14v2.08a63.23,63.23,0,1,0-63.22-63.22,63.23,63.23,0,0,0,63.22,63.22V211.3a61.15,61.15,0,1,1,61.15-61.14Z" transform="translate(-9.88 -6.62)"/><path class="cls-1" d="M717.61,150.16A59.83,59.83,0,1,0,657.78,210v-1.09a58.74,58.74,0,1,1,58.74-58.73,58.74,58.74,0,0,1-58.74,58.73V210A59.83,59.83,0,0,0,717.61,150.16Z" transform="translate(-9.88 -6.62)"/><path class="cls-1" d="M646.55,95l4.87,8.35a18.87,18.87,0,0,0-2.17.36l-.87-1.49-2.66.6.17-2.08,1.44-.33-1.24-2.13-.2,2.46-.17,2.08-.14,1.72a19.83,19.83,0,0,0-2.11.61l.79-9.63Z" transform="translate(-9.88 -6.62)"/><path class="cls-1" d="M697.17,111.31l-2.74,2.41a.85.85,0,0,0-.08,1.18l2,2.3-1.21,1-2.57-2.91-1.44,1.28,3.14,3.56a1.06,1.06,0,0,0,1.49.08l2.74-2.32a.83.83,0,0,0,.08-1.17l-2-2.32,1.18-1,2.61,3,1.51-1.29-3.22-3.65A1.06,1.06,0,0,0,697.17,111.31Z" transform="translate(-9.88 -6.62)"/><path class="cls-1" d="M615.36,129.42c-.27.56-.54,1.13-.8,1.72l-8.13-4L609,122l1.77.92-1.66,3.35,1.39.7,1.43-2.88,1.76.92-1.42,2.85Z" transform="translate(-9.88 -6.62)"/><path class="cls-1" d="M694.69,107.62a1.22,1.22,0,0,1,.17,1.73l-4.24,5.15a1.23,1.23,0,0,1-1.74.17c-.76-.62-1.46-1.3-1.65-1.46s-.88-.68-1.62-1.23a1.22,1.22,0,0,1-.17-1.74l4.21-5.15a1.25,1.25,0,0,1,1.74-.17l-.67,2-3.29,4,2.21,1.8,3.27-4-2.19-1.79.67-2Z" transform="translate(-9.88 -6.62)"/><path class="cls-1" d="M637.7,103.62l-1.77.8-.81-1.81,2-.88a.48.48,0,0,0,.25-.64l-.25-.55a.48.48,0,0,0-.64-.24l-1.95.88.64,1.43.81,1.81,1.42,3.17-1.85.91-3.72-8.28,5.37-2.41a.85.85,0,0,1,1.14.43l1.22,2.73a.79.79,0,0,1-.4,1,.05.05,0,1,0,0,.1.79.79,0,0,1,1.05.39c.25.58,1,2.21,1,2.37a.73.73,0,0,0,.78.55l.06.13c-.69.27-1.37.54-2.12.86a1.05,1.05,0,0,1-.58-.59c-.13-.29-.55-1.42-.74-1.84A.71.71,0,0,0,637.7,103.62Z" transform="translate(-9.88 -6.62)"/><path class="cls-1" d="M658.84,103l0-2-3.68.13L654.87,94l-1.92.07.34,9.06c2-.15,3.75-.2,5.55-.17" transform="translate(-9.88 -6.62)"/><path class="cls-1" d="M619.56,119.19l1.59,1.18c-1.12,1.41-2.18,2.86-3.26,4.5l-7.39-5.25,3.32-4.67,1.6,1.18-2.17,3.05,1.27.91,1.86-2.62,1.6,1.18-1.85,2.6,1.3.94Z" transform="translate(-9.88 -6.62)"/><path class="cls-1" d="M622.38,118.9l-6.47-6.5.87-.86,1.88.86,3.64,3.68,2-2-3.65-3.66-2,2-1.88-.86,3-3a1.22,1.22,0,0,1,1.74,0l4.69,4.74a1.23,1.23,0,0,1,0,1.75c-.69.69-1.44,1.32-1.62,1.49S623,118.23,622.38,118.9Z" transform="translate(-9.88 -6.62)"/><path class="cls-1" d="M632.34,108.07l1.09,1.65c-1.53,1-3,2-4.59,3.13l-5.16-7.46,4.71-3.26,1.1,1.65-3.08,2.13.88,1.29,2.65-1.83L631,107l-2.63,1.81.91,1.33Z" transform="translate(-9.88 -6.62)"/><path class="cls-1" d="M662.83,103.15l1.59-9,1.2.21.38,2-.91,5.09,2.8.49.9-5.09L666,96.37l-.38-2,4.21.74a1.21,1.21,0,0,1,1,1.42l-1.18,6.57a1.23,1.23,0,0,1-1.43,1c-1-.17-1.91-.42-2.16-.47Z" transform="translate(-9.88 -6.62)"/><path class="cls-1" d="M677.56,105.11l-.73,1.84c-1.65-.72-3.33-1.37-5.19-2l3.16-8.5,5.37,2-.73,1.85-3.5-1.3-.56,1.46,3,1.12-.72,1.85-3-1.12-.57,1.5Z" transform="translate(-9.88 -6.62)"/><path class="cls-1" d="M681.72,105.39l1-1.76,1.9,1.07a.49.49,0,0,0,.67-.18l.3-.54a.5.5,0,0,0-.19-.67l-1.9-1.07-.78,1.39-1,1.76L680,108.48c-.7-.38-1.29-.68-1.86-1l4.53-8.05,5.22,2.94a.86.86,0,0,1,.34,1.19L686.27,107a.81.81,0,0,1-1.1.3Z" transform="translate(-9.88 -6.62)"/><path class="cls-1" d="M696.4,123l7.5-5.06,1.08,1.6-7.51,5.05c-.17-.27-.35-.54-.53-.81S696.59,123.21,696.4,123Z" transform="translate(-9.88 -6.62)"/><path class="cls-1" d="M706.52,126.2l-6.31,3.23c-.14-.29-.29-.58-.43-.86l-.44-.85,6.31-3.23-.9-1.77,1.75-.89,2.67,5.22-1.75.9Z" transform="translate(-9.88 -6.62)"/><polygon class="cls-1" points="597.29 127.49 597.21 129.93 599.47 130.85 597.13 131.53 596.95 133.95 595.58 131.94 593.22 132.52 594.71 130.6 593.43 128.53 595.72 129.35 597.29 127.49"/><polygon class="cls-1" points="698.52 127.49 698.6 129.93 696.34 130.85 698.68 131.53 698.86 133.95 700.22 131.94 702.59 132.52 701.1 130.6 702.38 128.53 700.09 129.35 698.52 127.49"/><path class="cls-1" d="M636.9,199.78l-.23.51-2.57-1.17,2.12-4.72,2.6,1.18-.24.52,1.75.8.56-1.24a1.23,1.23,0,0,0-.62-1.63c-.89-.41-1.8-.77-2-.88s-1-.45-1.83-.87a1.24,1.24,0,0,0-1.65.62l-2.76,6a1.25,1.25,0,0,0,.62,1.64l3.88,1.77a1.23,1.23,0,0,0,1.63-.61l.52-1.16Z" transform="translate(-9.88 -6.62)"/><path class="cls-1" d="M610.71,148.18l-9-.57.12-1.92,9,.57c0,.32-.05.65-.07,1S610.73,147.86,610.71,148.18Z" transform="translate(-9.88 -6.62)"/><path class="cls-1" d="M610.38,159.44l-3.53.93a.84.84,0,0,0-.6,1l.78,3-1.55.39-1-3.75-1.86.49,1.21,4.6a1.06,1.06,0,0,0,1.3.74l3.49-.85a.83.83,0,0,0,.6-1l-.79-3,1.53-.4,1,3.81,1.94-.47-1.25-4.72A1.05,1.05,0,0,0,610.38,159.44Z" transform="translate(-9.88 -6.62)"/><path class="cls-1" d="M605.78,156.33l5.22-.52.09,1c0,.32.06.63.1.95l-9,.86-.18-1.91,5.31-4-5.67.17,0-1.92,9-.26c0,.33,0,.65,0,1s0,.63,0,.95Z" transform="translate(-9.88 -6.62)"/><path class="cls-1" d="M607.44,174.86a1.22,1.22,0,0,0,1.61.64l7.21-3.11-.78-1.78L609,173.43l-1.14-2.61,6.48-2.8-.79-1.8-7.17,3.12a1.24,1.24,0,0,0-.65,1.64Z" transform="translate(-9.88 -6.62)"/><polygon class="cls-1" points="606.97 182.39 608.53 181.53 610.38 180.55 612.56 179.39 611.44 181.59 610.38 180.55 608.53 181.53 610.48 183.45 609.65 185.03 611.21 186.57 615.57 178.01 613.89 176.36 605.41 180.85 606.97 182.39"/><path class="cls-1" d="M620.66,179.25a.87.87,0,0,1-.22,1.2L618,182.14a.79.79,0,0,1-1.1-.21,0,0,0,0,0-.07,0,.05.05,0,0,0,0,.07.79.79,0,0,1-.2,1.1l-2.13,1.47a.72.72,0,0,0-.41.86l-.08.06-1.29-1.88a1.09,1.09,0,0,1,.5-.7c.26-.18,1.3-.8,1.68-1.06a.72.72,0,0,0,.19-1l-1.11-1.6,1.64-1.12,1.22,1.76a.47.47,0,0,0,.67.12l.5-.34a.48.48,0,0,0,.12-.67l-1.22-1.76-1.29.89-1.64,1.12-2.89,2-1.17-1.69,7.45-5.14A51.27,51.27,0,0,0,620.66,179.25Z" transform="translate(-9.88 -6.62)"/><path class="cls-1" d="M647.11,198.28l.52-1.91c-1.76-.41-3.49-.89-5.35-1.51l-2.53,8.71,5.5,1.59.52-1.91-3.59-1,.42-1.51,3.09.9.52-1.92-3.06-.89.43-1.54Z" transform="translate(-9.88 -6.62)"/><path class="cls-1" d="M629.62,194.41l2.91-4.37.8.55.8.52-5,7.51-1.59-1.07.23-6.67-3.46,4.49-1.52-1.18,5.53-7.15.76.6.76.57Z" transform="translate(-9.88 -6.62)"/><path class="cls-1" d="M662.92,206.36a1.24,1.24,0,0,1-1.39-1.05l-.89-6.61a1.23,1.23,0,0,1,1.05-1.4c1-.13,1.95-.18,2.19-.22s1.1-.18,2-.35a1.22,1.22,0,0,1,1.4,1.06l.92,6.58a1.22,1.22,0,0,1-1.05,1.39l-1-1.82-.7-5.12-2.82.39.72,5.12,2.8-.39,1,1.82Z" transform="translate(-9.88 -6.62)"/><path class="cls-1" d="M682.67,190.41a.88.88,0,0,1,1.19.36l1.85,3.48a.82.82,0,0,1-.33,1.1l-3.49,1.86-.95-1.78,1.93-1a.49.49,0,0,0,.2-.67l-.29-.54a.49.49,0,0,0-.67-.2l-1.92,1,.75,1.41.95,1.78,1.69,3.15c-.7.39-1.3.66-1.85,1l-4.34-8.12C678.61,192.67,681.22,191.31,682.67,190.41Z" transform="translate(-9.88 -6.62)"/><path class="cls-1" d="M709.08,173.39l-6.5-2.81-.79,1.82-1.81-.79a44.27,44.27,0,0,0,2.33-5.38l1.81.78-.78,1.8,6.51,2.82Z" transform="translate(-9.88 -6.62)"/><path class="cls-1" d="M657.28,204l0,.57-2.83-.11.18-5.17,2.85.11,0,.56,1.92.08,0-1.35a1.25,1.25,0,0,0-1.19-1.29c-1,0-2,0-2.2,0s-1.12,0-2-.12a1.23,1.23,0,0,0-1.29,1.19l-.26,6.65a1.24,1.24,0,0,0,1.19,1.28l4.27.16a1.22,1.22,0,0,0,1.27-1.18l.05-1.27Z" transform="translate(-9.88 -6.62)"/><path class="cls-1" d="M674.56,194.38a.86.86,0,0,1,1.08.57l.88,2.86a.79.79,0,0,1-.52,1,.06.06,0,0,0,0,.07.05.05,0,0,0,.07,0,.79.79,0,0,1,1,.52c.17.6.71,2.31.76,2.48a.73.73,0,0,0,.71.64l0,.09-2.18.68a1.14,1.14,0,0,1-.53-.69c-.09-.31-.37-1.48-.51-1.92a.71.71,0,0,0-.89-.48l-1.86.58-.59-1.9,2-.63a.49.49,0,0,0,.32-.61l-.18-.57a.48.48,0,0,0-.61-.32l-2,.64.46,1.49.59,1.9,1,3.36-2,.61-2.68-8.64A48.94,48.94,0,0,0,674.56,194.38Z" transform="translate(-9.88 -6.62)"/><path class="cls-1" d="M691.27,195.64a1.23,1.23,0,0,1-1.73-.18l-4.19-5.19a1.24,1.24,0,0,1,.18-1.74c.76-.62,1.57-1.17,1.76-1.32s.85-.73,1.53-1.34a1.21,1.21,0,0,1,1.74.18l4.2,5.16a1.24,1.24,0,0,1-.18,1.74l-1.79-1-3.25-4-2.21,1.8,3.26,4,2.2-1.78,1.79,1Z" transform="translate(-9.88 -6.62)"/><path class="cls-1" d="M695,179.35a.87.87,0,0,1,1.22-.08l2.24,2a.8.8,0,0,1,.06,1.12.05.05,0,1,0,.08.07.79.79,0,0,1,1.12-.07c.46.42,1.8,1.61,1.93,1.72a.73.73,0,0,0,.94.18l.07.07-1.51,1.71a1.13,1.13,0,0,1-.81-.32c-.23-.21-1.08-1.07-1.43-1.38a.72.72,0,0,0-1,.06l-1.29,1.46-1.48-1.32,1.42-1.61a.48.48,0,0,0,0-.68l-.45-.4a.5.5,0,0,0-.69,0L694,183.52l1.18,1,1.48,1.32,2.64,2.33-1.37,1.54-6.78-6A51.72,51.72,0,0,0,695,179.35Z" transform="translate(-9.88 -6.62)"/><polygon class="cls-1" points="694.9 175.06 693.72 173.72 692.36 172.14 690.75 170.27 693.14 170.88 692.36 172.14 693.72 173.72 695.16 171.4 696.89 171.87 698.05 170.01 688.74 167.64 687.5 169.64 693.75 176.92 694.9 175.06"/><path class="cls-1" d="M703.38,162.88l8.66,2.61-.56,1.84-8.66-2.61c.1-.3.2-.61.29-.92Z" transform="translate(-9.88 -6.62)"/><path class="cls-1" d="M710.28,147.28l-5.25.2c0-.32,0-.65,0-1s0-.63,0-.95l9-.31.06,1.92-5.55,3.72,5.67.18-.06,1.92-9-.3c0-.32,0-.65,0-1s0-.63,0-.95Z" transform="translate(-9.88 -6.62)"/><path class="cls-1" d="M713.16,161.3a1.22,1.22,0,0,1-1.39,1l-6.6-1a1.24,1.24,0,0,1-1-1.41c.15-1,.38-1.92.42-2.16s.13-1.11.23-2a1.21,1.21,0,0,1,1.41-1l6.57,1a1.24,1.24,0,0,1,1,1.41l-2,.43-5.11-.79-.42,2.82,5.11.77.42-2.8,2-.43Z" transform="translate(-9.88 -6.62)"/><path class="cls-1" d="M657.78,150.16" transform="translate(-9.88 -6.62)"/><path class="cls-1" d="M657.78,150.16" transform="translate(-9.88 -6.62)"/><path class="cls-1" d="M657.78,150.16" transform="translate(-9.88 -6.62)"/><path class="cls-1" d="M657.78,150.16" transform="translate(-9.88 -6.62)"/><path class="cls-1" d="M657.78,150.16" transform="translate(-9.88 -6.62)"/><path class="cls-1" d="M657.78,150.16" transform="translate(-9.88 -6.62)"/><path class="cls-1" d="M657.78,150.16" transform="translate(-9.88 -6.62)"/><path class="cls-1" d="M657.78,150.16" transform="translate(-9.88 -6.62)"/><path class="cls-1" d="M644.27,131.52a1,1,0,1,0,0-1.91,1,1,0,0,0,0,1.91Z" transform="translate(-9.88 -6.62)"/><path class="cls-1" d="M644,130.72l-3.31,12.87h.81l2.36-9.09v9.09h.9V134.5l2.36,9.09h-6.43a3.92,3.92,0,0,0,7.19,0l-3.31-12.87Z" transform="translate(-9.88 -6.62)"/><path class="cls-1" d="M657.77,125l1.55.69-.16.27c-.73,0-.88,1.39-.88,2.09a1,1,0,0,0,1.08.95,24.6,24.6,0,0,1,3.62-.64c1.7,0,3.47.72,5.32.72a8.64,8.64,0,0,0,2.74-.52c.47,0,1.39.2,1.39.87s-.92.87-1.39.87a8.78,8.78,0,0,0-2.74-.51c-1.85,0-3.62.71-5.32.71a25,25,0,0,1-3.62-.63,1,1,0,0,0-1.08,1c0,.39.84,1.18.84,1.18l-1.35,2.06L656.42,132s.85-.79.85-1.18a1,1,0,0,0-1.08-1,25.22,25.22,0,0,1-3.62.63c-1.7,0-3.48-.71-5.33-.71a9,9,0,0,0-2.74.51c-.46,0-1.38-.2-1.38-.87s.92-.87,1.38-.87a8.8,8.8,0,0,0,2.74.52c1.85,0,3.63-.72,5.33-.72a24.87,24.87,0,0,1,3.62.64,1,1,0,0,0,1.08-.95c0-.7-.15-2.09-.89-2.09l-.15-.27Z" transform="translate(-9.88 -6.62)"/><path class="cls-1" d="M671.27,131.52a1,1,0,1,1,1-1A1,1,0,0,1,671.27,131.52Z" transform="translate(-9.88 -6.62)"/><path class="cls-1" d="M671.51,130.72l3.31,12.87H674l-2.36-9.09v9.09h-.9V134.5l-2.36,9.09h6.43a3.91,3.91,0,0,1-7.18,0L671,130.72Z" transform="translate(-9.88 -6.62)"/><path class="cls-1" d="M636.29,127.79a.88.88,0,1,0-.87-.88A.88.88,0,0,0,636.29,127.79Z" transform="translate(-9.88 -6.62)"/><path class="cls-1" d="M633.26,130.81a.87.87,0,1,0-.87-.87A.87.87,0,0,0,633.26,130.81Z" transform="translate(-9.88 -6.62)"/><path class="cls-1" d="M639.32,130.81a.87.87,0,1,0-.87-.87A.87.87,0,0,0,639.32,130.81Z" transform="translate(-9.88 -6.62)"/><path class="cls-1" d="M636.29,133.84a.87.87,0,1,0-.87-.87A.87.87,0,0,0,636.29,133.84Z" transform="translate(-9.88 -6.62)"/><path class="cls-1" d="M642.25,127.79a.88.88,0,1,0-.88-.88A.88.88,0,0,0,642.25,127.79Z" transform="translate(-9.88 -6.62)"/><path class="cls-1" d="M673.4,127.79a.88.88,0,1,0-.88-.88A.88.88,0,0,0,673.4,127.79Z" transform="translate(-9.88 -6.62)"/><circle class="cls-1" cx="670.15" cy="120.3" r="0.87"/><path class="cls-1" d="M642.25,133.74a.87.87,0,1,0-.88-.87A.87.87,0,0,0,642.25,133.74Z" transform="translate(-9.88 -6.62)"/><path class="cls-1" d="M648.59,139.8a.88.88,0,1,0-.87-.88A.87.87,0,0,0,648.59,139.8Z" transform="translate(-9.88 -6.62)"/><path class="cls-1" d="M651.91,142.63a.88.88,0,1,0-.87-.87A.87.87,0,0,0,651.91,142.63Z" transform="translate(-9.88 -6.62)"/><path class="cls-1" d="M639.22,136.77a.87.87,0,1,0-.87-.87A.87.87,0,0,0,639.22,136.77Z" transform="translate(-9.88 -6.62)"/><path class="cls-1" d="M636.29,139.7a.88.88,0,1,0-.87-.87A.87.87,0,0,0,636.29,139.7Z" transform="translate(-9.88 -6.62)"/><path class="cls-1" d="M639.27,142.68a.88.88,0,0,0,0-1.75.88.88,0,1,0,0,1.75Z" transform="translate(-9.88 -6.62)"/><path class="cls-1" d="M645.47,148.88a.88.88,0,1,0-.87-.87A.87.87,0,0,0,645.47,148.88Z" transform="translate(-9.88 -6.62)"/><path class="cls-1" d="M636.29,145.66a.88.88,0,1,0-.87-.88A.87.87,0,0,0,636.29,145.66Z" transform="translate(-9.88 -6.62)"/><path class="cls-1" d="M636.29,151.91a.88.88,0,1,0-.87-.88A.87.87,0,0,0,636.29,151.91Z" transform="translate(-9.88 -6.62)"/><path class="cls-1" d="M636.29,157.86a.87.87,0,1,0-.87-.87A.87.87,0,0,0,636.29,157.86Z" transform="translate(-9.88 -6.62)"/><path class="cls-1" d="M639.41,154.74a.88.88,0,1,0-.87-.88A.87.87,0,0,0,639.41,154.74Z" transform="translate(-9.88 -6.62)"/><path class="cls-1" d="M642.54,151.91a.88.88,0,1,0-.87-.88A.87.87,0,0,0,642.54,151.91Z" transform="translate(-9.88 -6.62)"/><path class="cls-1" d="M639.41,148.78a.87.87,0,1,0-.87-.87A.87.87,0,0,0,639.41,148.78Z" transform="translate(-9.88 -6.62)"/><path class="cls-1" d="M633.31,160.84a.87.87,0,1,0-.87-.87A.87.87,0,0,0,633.31,160.84Z" transform="translate(-9.88 -6.62)"/><path class="cls-1" d="M648.59,133.74a.87.87,0,1,0-.87-.87A.87.87,0,0,0,648.59,133.74Z" transform="translate(-9.88 -6.62)"/><path class="cls-1" d="M651.62,136.77a.88.88,0,1,0-.87-.87A.87.87,0,0,0,651.62,136.77Z" transform="translate(-9.88 -6.62)"/><path class="cls-1" d="M654.84,139.6a.87.87,0,1,0-.87-.87A.88.88,0,0,0,654.84,139.6Z" transform="translate(-9.88 -6.62)"/><path class="cls-1" d="M654.84,133.74a.87.87,0,1,0-.87-.87A.88.88,0,0,0,654.84,133.74Z" transform="translate(-9.88 -6.62)"/><path class="cls-1" d="M657.87,136.77a.88.88,0,1,0-.87-.87A.87.87,0,0,0,657.87,136.77Z" transform="translate(-9.88 -6.62)"/><path class="cls-1" d="M660.9,133.74a.87.87,0,1,0-.87-.87A.87.87,0,0,0,660.9,133.74Z" transform="translate(-9.88 -6.62)"/><path class="cls-1" d="M664.41,136.87a.88.88,0,1,0,0-1.75.88.88,0,0,0,0,1.75Z" transform="translate(-9.88 -6.62)"/><path class="cls-1" d="M667.34,133.84a.88.88,0,1,0-.87-.87A.87.87,0,0,0,667.34,133.84Z" transform="translate(-9.88 -6.62)"/><path class="cls-1" d="M661.29,139.8a.88.88,0,1,0-.87-.88A.87.87,0,0,0,661.29,139.8Z" transform="translate(-9.88 -6.62)"/><path class="cls-1" d="M664.51,143a.88.88,0,1,0-.87-.87A.87.87,0,0,0,664.51,143Z" transform="translate(-9.88 -6.62)"/><path class="cls-1" d="M667.59,139.94a.87.87,0,1,0-.88-.87A.87.87,0,0,0,667.59,139.94Z" transform="translate(-9.88 -6.62)"/><path class="cls-1" d="M676.67,131.06a.88.88,0,1,0-.88-.88A.87.87,0,0,0,676.67,131.06Z" transform="translate(-9.88 -6.62)"/><path class="cls-1" d="M682.92,130.67a.88.88,0,1,0-.88-.88A.87.87,0,0,0,682.92,130.67Z" transform="translate(-9.88 -6.62)"/><circle class="cls-1" cx="669.86" cy="126.35" r="0.87"/><path class="cls-1" d="M676.62,137a.87.87,0,1,0-.87-.87A.87.87,0,0,0,676.62,137Z" transform="translate(-9.88 -6.62)"/><circle class="cls-1" cx="666.74" cy="135.54" r="0.87"/><path class="cls-1" d="M679.74,140.09a.88.88,0,1,0-.87-.87A.88.88,0,0,0,679.74,140.09Z" transform="translate(-9.88 -6.62)"/><path class="cls-1" d="M680.43,146.14a.87.87,0,1,0-.88-.87A.87.87,0,0,0,680.43,146.14Z" transform="translate(-9.88 -6.62)"/><circle class="cls-1" cx="667.32" cy="141.68" r="0.87"/><path class="cls-1" d="M670.76,149.07a.87.87,0,1,0-.87-.87A.87.87,0,0,0,670.76,149.07Z" transform="translate(-9.88 -6.62)"/><path class="cls-1" d="M674.08,152.29a.87.87,0,1,0-.87-.87A.87.87,0,0,0,674.08,152.29Z" transform="translate(-9.88 -6.62)"/><path class="cls-1" d="M676.81,155a.88.88,0,1,0-.87-.87A.87.87,0,0,0,676.81,155Z" transform="translate(-9.88 -6.62)"/><path class="cls-1" d="M680.23,158.06a.88.88,0,1,0-.87-.88A.87.87,0,0,0,680.23,158.06Z" transform="translate(-9.88 -6.62)"/><circle class="cls-1" cx="629.14" cy="166.88" r="0.87"/><path class="cls-1" d="M645.27,168.12a.88.88,0,1,0,0-1.75.88.88,0,0,0,0,1.75Z" transform="translate(-9.88 -6.62)"/><circle class="cls-1" cx="638.37" cy="157.65" r="0.87"/><path class="cls-1" d="M651.42,162a.87.87,0,1,0-.87-.87A.87.87,0,0,0,651.42,162Z" transform="translate(-9.88 -6.62)"/><path class="cls-1" d="M654.5,158.89a.88.88,0,1,0-.87-.88A.87.87,0,0,0,654.5,158.89Z" transform="translate(-9.88 -6.62)"/><path class="cls-1" d="M657.58,155.81a.87.87,0,1,0-.88-.87A.87.87,0,0,0,657.58,155.81Z" transform="translate(-9.88 -6.62)"/><path class="cls-1" d="M660.75,159a.87.87,0,1,0-.87-.87A.87.87,0,0,0,660.75,159Z" transform="translate(-9.88 -6.62)"/><path class="cls-1" d="M664.07,161.92a.88.88,0,1,0-.87-.88A.88.88,0,0,0,664.07,161.92Z" transform="translate(-9.88 -6.62)"/><path class="cls-1" d="M667.1,164.94a.87.87,0,1,0-.88-.87A.87.87,0,0,0,667.1,164.94Z" transform="translate(-9.88 -6.62)"/><path class="cls-1" d="M660.75,165a.88.88,0,1,0-.87-.87A.87.87,0,0,0,660.75,165Z" transform="translate(-9.88 -6.62)"/><path class="cls-1" d="M657.72,162a.87.87,0,1,0-.87-.87A.87.87,0,0,0,657.72,162Z" transform="translate(-9.88 -6.62)"/><path class="cls-1" d="M654.6,165.14a.88.88,0,1,0-.87-.88A.87.87,0,0,0,654.6,165.14Z" transform="translate(-9.88 -6.62)"/><path class="cls-1" d="M651.57,168.16a.87.87,0,1,0-.87-.87A.87.87,0,0,0,651.57,168.16Z" transform="translate(-9.88 -6.62)"/><path class="cls-1" d="M657.72,168.16a.87.87,0,1,0-.87-.87A.87.87,0,0,0,657.72,168.16Z" transform="translate(-9.88 -6.62)"/><path class="cls-1" d="M663.78,168.16a.87.87,0,1,0-.88-.87A.87.87,0,0,0,663.78,168.16Z" transform="translate(-9.88 -6.62)"/><path class="cls-1" d="M673.25,171a.88.88,0,1,0-.87-.88A.87.87,0,0,0,673.25,171Z" transform="translate(-9.88 -6.62)"/><path class="cls-1" d="M676.47,173.93a.88.88,0,1,0-.87-.88A.87.87,0,0,0,676.47,173.93Z" transform="translate(-9.88 -6.62)"/><path class="cls-1" d="M673.35,177.15a.88.88,0,1,0-.88-.87A.87.87,0,0,0,673.35,177.15Z" transform="translate(-9.88 -6.62)"/><path class="cls-1" d="M661,177.25a.88.88,0,1,0-.88-.88A.88.88,0,0,0,661,177.25Z" transform="translate(-9.88 -6.62)"/><path class="cls-1" d="M654.6,177.25a.88.88,0,1,0-.87-.88A.88.88,0,0,0,654.6,177.25Z" transform="translate(-9.88 -6.62)"/><path class="cls-1" d="M663.88,180.18a.88.88,0,1,0-.88-.88A.88.88,0,0,0,663.88,180.18Z" transform="translate(-9.88 -6.62)"/><path class="cls-1" d="M657.72,180.18a.88.88,0,1,0,0-1.75.88.88,0,0,0,0,1.75Z" transform="translate(-9.88 -6.62)"/><path class="cls-1" d="M651.57,180.18a.88.88,0,1,0-.87-.88A.88.88,0,0,0,651.57,180.18Z" transform="translate(-9.88 -6.62)"/><path class="cls-1" d="M690.71,131.36c1.51.6,3.91,3.32,2.4,4.83-5.52-2-7.25,2.87-7.25,5.59,0,6.27,4.75,9.52,4.75,20.7,0,3.51-.9,17.14-19.46,21.43-2.9.67-9.22,2.36-13.37,6.21V189c4.55-4.22,13.31-5.72,14.74-6.14,6.94-2.09,17.35-7.8,17.35-20.6,0-7.87-3.24-14-6.25-14-1.27,0-.87,1.57-.15,2.62.42.62.92,1.66-.23,1.43s-2.7.15-2.7,1.19c0,.5.65.5,1,.31a3,3,0,0,1,1.47-.35c1.27,0,2.66.81,2.66,1.74s-1.78.54-1.78,1.27c0,.5,4.25,3.51,4.25,7.06,0,1.12-.47.7-.74,0s-1-1.62-1.69-1.62-1.08.27-.78.85a9.51,9.51,0,0,1,1.47,4.82c0,2.47-1.81,5.71-3,7.18-.58.72-.77.27-.88,0s-.39-1.12-1-1.12c-1,0-.38,4.78-11.38,7.71-2.18.59-7.75,2-12.38,5.52-4.63-3.55-10.2-4.93-12.38-5.52-11-2.93-10.38-7.71-11.38-7.71-.58,0-.85.85-1,1.12s-.3.72-.88,0c-1.2-1.47-3-4.71-3-7.18a9.53,9.53,0,0,1,1.46-4.82c.31-.58-.07-.85-.77-.85s-1.42.93-1.69,1.62-.74,1.12-.74,0c0-3.55,4.25-6.56,4.25-7.06,0-.73-1.78-.34-1.78-1.27s1.39-1.74,2.66-1.74a3,3,0,0,1,1.47.35c.35.19,1,.19,1-.31,0-1-1.54-1.42-2.7-1.19s-.65-.81-.23-1.43c.72-1.05,1.12-2.62-.15-2.62-3,0-6.25,6.17-6.25,14,0,12.8,10.41,18.51,17.35,20.6,1.43.42,10.19,1.92,14.74,6.14v1.16c-4.15-3.85-10.51-5.54-13.4-6.21-18.57-4.29-19.47-17.92-19.47-21.43,0-11.18,4.76-14.43,4.76-20.7,0-2.72-1.74-7.55-7.25-5.59-1.52-1.51.9-4.23,2.41-4.83-.3-1.36,4.31-7.33,11.78-7.33,4.84,0,8.61,2.34,13.75,2.34a17.24,17.24,0,0,0,7.42-2.11v1.06a17.38,17.38,0,0,1-7.42,2.11c-5.14,0-8.91-2.34-13.75-2.34a12.81,12.81,0,0,0-8.29,3,7.92,7.92,0,0,1,1.29.46c.46.35.23.85-.39.62a5.78,5.78,0,0,0-1.51-.52,8,8,0,0,0-.7.76,4.63,4.63,0,0,1,2.45.65c.53.29.36.9-.33.59a4.75,4.75,0,0,0-2.65-.5,2.65,2.65,0,0,0-.37.86l.28,1.16c-1,0-3.62.93-3.12,2.59.89-.27,7.17-.12,7.17,6.25,0,1.08.39,1,.39.61a7.09,7.09,0,0,0-3.78-7.29c-.95-.45-.74-1.27.61-.54a7.26,7.26,0,0,1,3.94,6.37c0,.85-.23,2.58-.23,2.58a4.85,4.85,0,0,0,1-3.35c0-4-3.2-7.22-5.94-7.22l-.28-1.16c1.59-.23,7.33,1.28,7.33,9.06,0,1.29-.75,5.37-2.11,7.1,1.51-.22,4.38-.15,2.11,3.86,3.32.68,2.49,4,1.44,4-1.4,0-1.29-.76-2.65-.76-1,0-1.07.65-.53.83a1.39,1.39,0,0,1,1.14,1.36c0,1.4-2,.68-3.82,4.76a4.49,4.49,0,0,1,1.36-.3c.42,0,1.4.15,1.4,1S630,164,630,167.35c0,1.77,1.82,4.94,2.27,5.55A2.48,2.48,0,0,1,634,172c2.11,0,1.81,1.66,1.81,2.12s2.34,4.53,9.07,6.19c3.28.81,10.44,2.84,12.93,5.25,2.49-2.41,9.66-4.44,12.93-5.25,6.73-1.66,9.07-5.74,9.07-6.19s-.3-2.12,1.81-2.12a2.48,2.48,0,0,1,1.66.91c.45-.61,2.27-3.78,2.27-5.55,0-3.4-1.74-4.65-1.74-5.48s1-1,1.4-1a4.49,4.49,0,0,1,1.36.3c-1.78-4.08-3.82-3.36-3.82-4.76a1.39,1.39,0,0,1,1.14-1.36c.54-.18.45-.83-.53-.83-1.36,0-1.25.76-2.65.76-1,0-1.88-3.32,1.44-4-2.27-4,.6-4.08,2.11-3.86-1.36-1.73-2.11-5.81-2.11-7.1,0-4.64,2-7,4-8.19a5.44,5.44,0,0,0-.95-1c-.57-.5-.09-.91.41-.55a4.55,4.55,0,0,1,1.2,1.21c.26-.11.51-.2.75-.28a6.49,6.49,0,0,0-1-1.09c-.47-.46-.11-.88.4-.6a3.69,3.69,0,0,1,1.4,1.5,3.54,3.54,0,0,1,1.13-.06l-.27,1.16c-2.74,0-5.94,3.24-5.94,7.22a4.85,4.85,0,0,0,1,3.35S684,141,684,140.13a7.26,7.26,0,0,1,3.94-6.37c1.35-.73,1.56.09.61.54a7.07,7.07,0,0,0-3.78,7.29c0,.35.39.47.39-.61,0-6.37,6.29-6.52,7.17-6.25.5-1.66-2.16-2.59-3.12-2.59l.27-1.16c-.22-1.43-4.07-5.89-10.49-5.89-4.84,0-8.61,2.34-13.75,2.34a17.38,17.38,0,0,1-7.42-2.11v-1.06a17.08,17.08,0,0,0,7.38,2.11c5.14,0,8.93-2.34,13.77-2.34C686.4,124,691,130,690.71,131.36Z" transform="translate(-9.88 -6.62)"/><path class="cls-1" d="M661.26,185.44a43,43,0,0,1,11.11-4.31c1.43-.27,1.13.3-.23.61a44.68,44.68,0,0,0-10.35,3.92C661.19,186.15,660.15,186.13,661.26,185.44Z" transform="translate(-9.88 -6.62)"/><path class="cls-1" d="M655.21,185.94c-1.63-1.25-6.39-3.27-10.37-4-1.44-.27-1.13.3.22.6a31.27,31.27,0,0,1,9.62,3.65C655.33,186.6,656.26,186.74,655.21,185.94Z" transform="translate(-9.88 -6.62)"/><path class="cls-1" d="M657.76,139.83l27.9,27.32a3.7,3.7,0,0,0-.11-1.72l-27.79-27.2L630,165.43a3.84,3.84,0,0,0-.11,1.72Z" transform="translate(-9.88 -6.62)"/><polygon class="cls-1" points="647.88 145.5 670.18 167.34 670.79 166.33 647.88 143.89 624.97 166.33 625.58 167.34 647.88 145.5"/><path class="cls-1" d="M657.76,149.36,681.87,173c1.94,1.56,3.33-3.33,3.74-4.72L657.76,141l-27.84,27.26,3,1.82v-1.41l-.84-1.13,1.34-.42.82-1.15.82,1.15,1.77-.87v-1.41l-.84-1.13,1.35-.42.81-1.14.82,1.14,1.77-.86,0-1.41-.84-1.13,1.34-.42.82-1.15.81,1.15,1.77-.87,0-1.41-.84-1.13,1.34-.42.82-1.15.81,1.15,1.78-.87v-1.41l-.84-1.13,1.35-.42.81-1.15.82,1.15,1.77-.87v-1.4l-.84-1.13L653,148l.81-1.15.82,1.15,1.77-.87,0-1.41-.84-1.13,1.34-.42.82-1.15.81,1.15,1.34.42-.84,1.13,0,1.41.4,1.29,1.34-.42.82-1.15.82,1.15,1.34.42-.84,1.13v1.4l1.78.87.81-1.15.82,1.15,1.34.42-.84,1.13,0,1.41,1.77.87.81-1.15.82,1.15,1.34.42-.84,1.13,0,1.41,1.77.87.82-1.15.81,1.15,1.35.42-.84,1.13v1.41l1.77.86.82-1.14.82,1.14,1.34.42-.84,1.13v1.41l1.78.87.81-1.15.82,1.15,1.34.42-.84,1.13,0,1.41-1.34-.45-1.33.45v-1.41l-.84-1.13,1.35-.42-1.78-.87-1.33-.45-1.33.45v-1.41l-.84-1.13,1.34-.42-1.77-.86-1.33-.45-1.34.45,0-1.41-.84-1.13,1.34-.42-1.77-.87-1.34-.45-1.33.45,0-1.41-.84-1.13,1.34-.42-1.77-.87-1.34-.45-1.33.45v-1.41l-.84-1.13,1.35-.42-1.78-.87-1.33-.44-1.33.44v-1.4l-.84-1.13-.4-1.29-1.33-.45-1.34.45-1.77.87,1.34.42-.84,1.13,0,1.4-1.34-.44-1.33.44-1.77.87,1.34.42-.84,1.13v1.41l-1.33-.45-1.33.45-1.78.87,1.35.42-.84,1.13v1.41l-1.33-.45-1.34.45-1.77.87,1.35.42L643.4,161l0,1.41-1.33-.45-1.34.45-1.77.86,1.34.42-.84,1.13,0,1.41-1.34-.45-1.33.45-1.77.87,1.34.42-.84,1.13v1.41l-1.33-.45-1.33.45-3-1.82c.4,1.39,1.79,6.28,3.74,4.72Z" transform="translate(-9.88 -6.62)"/><polygon class="cls-1" points="71.02 67.24 71.02 112.79 148.74 112.79 148.74 172.8 71.02 172.8 71.02 279.8 0.17 279.8 0.17 7.23 156.7 7.23 156.7 67.24 71.02 67.24"/><path class="cls-1" d="M179.88,13.85V286.41h70.51l.34-60V73.85h16.63c45.55,0,77.72,27.48,77.72,76.28,0,53.14-36.15,76.28-78.44,76.28H250.73l-.34,60h30c75.56,0,138.46-59.64,138.46-136.28S356.29,13.85,280.37,13.85Z" transform="translate(-9.88 -6.62)"/><rect class="cls-1" x="419.03" y="7.23" width="70.85" height="272.57"/><path class="cls-1" d="M718,105.31c-14.46-19.53-38-30-62.17-30-43.38,0-72.66,33.26-72.66,75.55,0,43,29.64,74.11,73.74,74.11C680,225,703.16,213.75,718,196v85c-23.49,7.23-40.48,12.65-62.54,12.65-38,0-74.1-14.46-102.3-40.12-30-27.11-43.74-62.54-43.74-103a142.64,142.64,0,0,1,40.13-99.77C576.28,23.25,615,6.62,653.28,6.62c22.77,0,43.74,5.06,64.7,13.73Z" transform="translate(-9.88 -6.62)"/><path class="cls-1" d="M13.05,308v7.15h8.84v2.9H13.05v12.47H9.88V305.13H22.19V308Z" transform="translate(-9.88 -6.62)"/><path class="cls-1" d="M26.34,305.13H40V308H29.51v7.11H39.69V318H29.51v9.61H40v2.9H26.34Z" transform="translate(-9.88 -6.62)"/><path class="cls-1" d="M44.09,305.13h5.26c7.79,0,14.26,4.11,14.26,12.57,0,8.67-6.34,12.85-14.36,12.85H44.09Zm3.17,22.52h1.11c6.47,0,12.07-2.43,12.07-9.81S54.84,308,48.37,308H47.26Z" transform="translate(-9.88 -6.62)"/><path class="cls-1" d="M67.23,305.13H80.88V308H70.39v7.11H80.58V318H70.39v9.61H80.88v2.9H67.23Z" transform="translate(-9.88 -6.62)"/><path class="cls-1" d="M101.06,330.55H97.21L89.73,319.8H88.41v10.75H85.24V305.13h3.84c2.26,0,4.69,0,6.72,1.18a7,7,0,0,1,3.33,6.07,6.91,6.91,0,0,1-6.1,7.11ZM88.41,317.16h1c3.24,0,6.75-.6,6.75-4.65S92.39,308,89.25,308h-.84Z" transform="translate(-9.88 -6.62)"/><path class="cls-1" d="M107.61,324.18l-2.9,6.37H101.3l12.14-26.5,12.14,26.5h-3.41l-2.9-6.37ZM113.44,311l-4.52,10.28h9Z" transform="translate(-9.88 -6.62)"/><path class="cls-1" d="M131.32,327.65H139v2.9H128.15V305.13h3.17Z" transform="translate(-9.88 -6.62)"/><path class="cls-1" d="M151.48,305.13h5.26c7.79,0,14.27,4.11,14.27,12.57,0,8.67-6.34,12.85-14.37,12.85h-5.16Zm3.17,22.52h1.12c6.47,0,12.07-2.43,12.07-9.81s-5.6-9.81-12.07-9.81h-1.12Z" transform="translate(-9.88 -6.62)"/><path class="cls-1" d="M174.62,305.13h13.66V308H177.79v7.11H188V318H177.79v9.61h10.49v2.9H174.62Z" transform="translate(-9.88 -6.62)"/><path class="cls-1" d="M195.81,330.55h-3.17V305.13h3.64c7.82,0,10.25,2.69,10.25,7.35,0,5.36-4.08,7.42-8.9,7.42h-1.82Zm0-13.49h1c3.23,0,6.74-.6,6.74-4.65s-3.78-4.45-6.91-4.45h-.84Z" transform="translate(-9.88 -6.62)"/><path class="cls-1" d="M234.62,317.84a13.32,13.32,0,0,1-26.64,0,13.32,13.32,0,0,1,26.64,0Zm-3.17,0a10.15,10.15,0,1,0-20.3,0,10.15,10.15,0,1,0,20.3,0Z" transform="translate(-9.88 -6.62)"/><path class="cls-1" d="M249.44,310a4.37,4.37,0,0,0-4.08-2.39c-2,0-4.25,1.38-4.25,3.6,0,2,1.95,3,3.54,3.64l1.82.71c3.61,1.42,6.3,3.41,6.3,7.66a7.83,7.83,0,0,1-8.12,7.92,7.92,7.92,0,0,1-7.86-7.11l3.21-.68a4.81,4.81,0,1,0,9.61-.13c0-2.73-2.2-3.91-4.39-4.82l-1.75-.75c-2.9-1.24-5.53-2.9-5.53-6.44,0-4.11,3.64-6.57,7.48-6.57a7.26,7.26,0,0,1,6.55,3.84Z" transform="translate(-9.88 -6.62)"/><path class="cls-1" d="M259.76,330.55h-3.17V305.13h3.17Z" transform="translate(-9.88 -6.62)"/><path class="cls-1" d="M271.8,330.55h-3.17V308h-6v-2.9h15.24V308h-6Z" transform="translate(-9.88 -6.62)"/><path class="cls-1" d="M294,330.55h-3.17V305.13H294Z" transform="translate(-9.88 -6.62)"/><path class="cls-1" d="M298.92,303.91l19.08,20V305.13h3.17V331.6l-19.09-20v18.95h-3.16Z" transform="translate(-9.88 -6.62)"/><path class="cls-1" d="M337.43,310a4.35,4.35,0,0,0-4.08-2.39c-2,0-4.24,1.38-4.24,3.6,0,2,1.95,3,3.54,3.64l1.82.71c3.61,1.42,6.3,3.41,6.3,7.66a7.83,7.83,0,0,1-8.12,7.92,7.92,7.92,0,0,1-7.86-7.11l3.2-.68a4.81,4.81,0,1,0,9.61-.13c0-2.73-2.19-3.91-4.38-4.82l-1.75-.75c-2.9-1.24-5.53-2.9-5.53-6.44,0-4.11,3.64-6.57,7.48-6.57a7.25,7.25,0,0,1,6.54,3.84Z" transform="translate(-9.88 -6.62)"/><path class="cls-1" d="M347.42,305.13v15c0,4.15,1.25,8,6.14,8s6.14-3.84,6.14-8v-15h3.16v16.08c0,5.6-3.47,9.88-9.3,9.88s-9.31-4.28-9.31-9.88V305.13Z" transform="translate(-9.88 -6.62)"/><path class="cls-1" d="M383.51,330.55h-3.84l-7.49-10.75h-1.31v10.75H367.7V305.13h3.84c2.26,0,4.69,0,6.71,1.18a7,7,0,0,1,3.34,6.07,6.92,6.92,0,0,1-6.1,7.11Zm-12.64-13.39h1c3.24,0,6.74-.6,6.74-4.65s-3.77-4.55-6.91-4.55h-.84Z" transform="translate(-9.88 -6.62)"/><path class="cls-1" d="M390.06,324.18l-2.9,6.37h-3.4l12.14-26.5L408,330.55h-3.4l-2.9-6.37ZM395.9,311l-4.52,10.28h9Z" transform="translate(-9.88 -6.62)"/><path class="cls-1" d="M410.3,303.91l19.09,20V305.13h3.17V331.6l-19.09-20v18.95H410.3Z" transform="translate(-9.88 -6.62)"/><path class="cls-1" d="M456,310a10.32,10.32,0,0,0-6.71-2.49A10.35,10.35,0,1,0,456,325.56v3.74a13.72,13.72,0,0,1-6.68,1.79A13.16,13.16,0,0,1,436.11,318a13.37,13.37,0,0,1,13.52-13.38,12.26,12.26,0,0,1,6.41,1.72Z" transform="translate(-9.88 -6.62)"/><path class="cls-1" d="M460.26,305.13h13.66V308H463.43v7.11h10.18V318H463.43v9.61h10.49v2.9H460.26Z" transform="translate(-9.88 -6.62)"/><path class="cls-1" d="M507,310a10.3,10.3,0,0,0-6.71-2.49A10.35,10.35,0,1,0,507,325.56v3.74a13.69,13.69,0,0,1-6.67,1.79A13.16,13.16,0,0,1,487.05,318a13.36,13.36,0,0,1,13.52-13.38,12.25,12.25,0,0,1,6.4,1.72Z" transform="translate(-9.88 -6.62)"/><path class="cls-1" d="M536.05,317.84a13.32,13.32,0,0,1-26.64,0,13.32,13.32,0,0,1,26.64,0Zm-3.17,0a10.15,10.15,0,1,0-20.3,0,10.15,10.15,0,1,0,20.3,0Z" transform="translate(-9.88 -6.62)"/><path class="cls-1" d="M555.38,330.55h-3.84l-7.49-10.75h-1.31v10.75h-3.17V305.13h3.84c2.26,0,4.69,0,6.71,1.18a7,7,0,0,1,3.34,6.07,6.92,6.92,0,0,1-6.1,7.11Zm-12.64-13.39h1c3.23,0,6.74-.6,6.74-4.65s-3.78-4.55-6.91-4.55h-.84Z" transform="translate(-9.88 -6.62)"/><path class="cls-1" d="M561.49,330.55h-3.17V305.13H562c7.83,0,10.26,2.69,10.26,7.35,0,5.36-4.08,7.42-8.91,7.42h-1.82Zm0-13.49h1c3.24,0,6.75-.6,6.75-4.65s-3.78-4.45-6.91-4.45h-.85Z" transform="translate(-9.88 -6.62)"/><path class="cls-1" d="M600.31,317.84a13.32,13.32,0,0,1-26.64,0,13.32,13.32,0,0,1,26.64,0Zm-3.17,0a10.15,10.15,0,1,0-20.3,0,10.15,10.15,0,1,0,20.3,0Z" transform="translate(-9.88 -6.62)"/><path class="cls-1" d="M619.64,330.55H615.8l-7.49-10.75H607v10.75h-3.17V305.13h3.84c2.26,0,4.69,0,6.71,1.18a7,7,0,0,1,3.34,6.07,6.92,6.92,0,0,1-6.1,7.11ZM607,317.16h1c3.24,0,6.74-.6,6.74-4.65S611,308,607.84,308H607Z" transform="translate(-9.88 -6.62)"/><path class="cls-1" d="M626.19,324.18l-2.9,6.37h-3.4L632,304.05l12.14,26.5h-3.41l-2.9-6.37ZM632,311l-4.52,10.28h9Z" transform="translate(-9.88 -6.62)"/><path class="cls-1" d="M650.89,330.55h-3.17V308h-6v-2.9h15.25V308h-6Z" transform="translate(-9.88 -6.62)"/><path class="cls-1" d="M662.93,330.55h-3.17V305.13h3.17Z" transform="translate(-9.88 -6.62)"/><path class="cls-1" d="M693,317.84a13.32,13.32,0,0,1-26.63,0,13.32,13.32,0,0,1,26.63,0Zm-3.16,0a10.15,10.15,0,1,0-20.3,0,10.15,10.15,0,1,0,20.3,0Z" transform="translate(-9.88 -6.62)"/><path class="cls-1" d="M696.19,303.91l19.08,20V305.13h3.18V331.6l-19.09-20v18.95h-3.17Z" transform="translate(-9.88 -6.62)"/></svg>