<?xml version="1.0" encoding="UTF-8"?>
<svg width="83px" height="79px" viewBox="0 0 83 79" version="1.1" xmlns="http://www.w3.org/2000/svg" xmlns:xlink="http://www.w3.org/1999/xlink">
    <!-- Generator: Sketch 59.1 (86144) - https://sketch.com -->
    <title>Icon / Visual / About Copy</title>
    <desc>Created with Sketch.</desc>
    <g id="Icon-/-Visual-/-About-Copy" stroke="none" stroke-width="1" fill="none" fill-rule="evenodd">
        <g id="Group-247" transform="translate(3.000000, 1.000000)" fill="#B6AB82">
            <polygon id="Fill-1" points="28.975 17 28.45 18.2511916 28.975 18.2511916 28.975 22 30.55 22 30.55 17"></polygon>
            <g id="Group-246">
                <path d="M32.2253512,18.190266 C32.2253512,19.3974324 33.4325175,20.2060495 34.2388309,20.2060495 C35.0451443,20.2060495 35.4459973,20.2060495 35.849154,19.800589 C35.0451443,21.4132158 33.4325175,21.0100591 33.0316646,20.6069024 L32.6285079,21.8163725 C33.0316646,22.2195292 37.058624,22.6203822 37.058624,18.9965794 C37.058624,18.5934227 36.6554673,16.5776392 34.2388309,16.5776392 L34.2388309,17.3839526 C35.0451443,17.3839526 35.849154,17.7871093 35.849154,18.190266 C35.849154,18.9965794 35.0451443,19.3974324 34.2388309,19.3974324 C33.8356742,19.3974324 33.4325175,18.9965794 33.4325175,18.190266 C33.4325175,17.7871093 33.8356742,17.3839526 34.2388309,17.3839526 L34.2388309,16.5776392 C33.4325175,16.5776392 32.2253512,17.3839526 32.2253512,18.190266" id="Fill-2"></path>
                <path d="M40.2795005,22.2183773 C39.0723341,22.2183773 38.2660207,21.4120639 38.2660207,21.4120639 L39.0723341,20.6080543 C39.0723341,21.0089073 39.8763438,21.0089073 40.2795005,21.0089073 C40.2795005,21.0089073 41.0881176,21.0089073 41.0881176,20.6080543 C41.0881176,20.2048976 40.6826572,19.8017409 39.8763438,19.8017409 L39.8763438,18.9954275 C41.0881176,18.9954275 41.0881176,18.5922708 41.0881176,18.1891141 C41.0881176,17.7882612 40.6826572,17.7882612 40.2795005,17.7882612 C39.8763438,17.7882612 39.4731871,17.7882612 39.0723341,18.1891141 L38.2660207,17.3851045 C38.6691774,16.9819478 39.4731871,16.5787911 40.2795005,16.5787911 C41.4889705,16.5787911 42.2952839,17.3851045 42.2952839,18.1891141 C42.2952839,18.5922708 41.8898235,18.9954275 41.4889705,19.3985842 C41.8898235,19.3985842 42.2952839,20.2048976 42.2952839,20.6080543 C42.2952839,21.4120639 41.4889705,22.2183773 40.2795005,22.2183773" id="Fill-4"></path>
                <path d="M45.5170818,22.2183773 C44.7107685,22.2183773 43.9067588,21.4120639 43.5036021,21.4120639 L44.3099155,20.6080543 C44.7107685,21.0089073 45.1139252,21.0089073 45.5170818,21.0089073 C45.9202385,21.0089073 46.7242482,21.0089073 46.7242482,20.6080543 C46.7242482,20.2048976 46.3233952,19.8017409 45.1139252,19.8017409 L45.1139252,18.9954275 C46.3233952,18.9954275 46.7242482,18.5922708 46.7242482,18.1891141 C46.7242482,17.7882612 46.3233952,17.7882612 45.5170818,17.7882612 C45.5170818,17.7882612 45.1139252,17.7882612 44.7107685,18.1891141 L43.9067588,17.3851045 C44.3099155,16.9819478 44.7107685,16.5787911 45.5170818,16.5787911 C46.7242482,16.5787911 47.5305616,17.3851045 47.5305616,18.1891141 C47.5305616,18.5922708 47.5305616,18.9954275 47.1274049,19.3985842 C47.5305616,19.3985842 47.5305616,20.2048976 47.5305616,20.6080543 C47.5305616,21.4120639 46.7242482,22.2183773 45.5170818,22.2183773" id="Fill-6"></path>
                <path d="M29.4041759,55.2481989 L29.4041759,52.0275529 L28.5978625,52.0275529 L28.5978625,55.6513556 L30.6113422,55.6513556 L30.6113422,54.4418855 L31.4176556,54.4418855 L31.4176556,55.6513556 L33.433439,55.6513556 L33.433439,52.0275529 L34.2397524,52.0275529 C35.4469188,52.0275529 35.4469188,52.8315625 35.8500755,52.8315625 C36.6540851,52.8315625 36.6540851,52.0275529 37.0572418,52.0275529 C37.4603985,52.0275529 37.4603985,52.8315625 37.8635552,52.8315625 C38.6675648,52.8315625 38.6675648,52.0275529 39.0707215,52.0275529 C39.4738782,52.0275529 39.4738782,52.8315625 39.8770349,52.8315625 C40.6833483,52.8315625 41.086505,52.0275529 41.8905146,52.0275529 C42.6991317,52.0275529 42.6991317,52.4284058 42.6991317,53.2347192 C42.6991317,54.0410326 43.9062981,55.2481989 45.1134644,55.2481989 C45.9197778,55.2481989 47.1269441,54.0410326 47.1269441,53.2347192 L47.1269441,50.0140732 C47.1269441,49.205456 45.9197778,47.9982897 45.1134644,47.9982897 L45.1134644,48.8022993 C45.5166211,48.8022993 46.3229345,49.205456 46.3229345,50.0140732 C46.3229345,51.2212395 45.9197778,51.6243962 45.9197778,51.6243962 C45.9197778,51.6243962 46.3229345,52.0275529 46.3229345,53.2347192 C46.3229345,54.0410326 45.5166211,54.4418855 45.1134644,54.4418855 C44.3094548,54.4418855 43.9062981,54.0410326 43.9062981,53.2347192 C43.9062981,52.0275529 44.3094548,51.6243962 44.3094548,51.6243962 C44.3094548,51.6243962 43.9062981,51.2212395 43.9062981,50.0140732 C43.9062981,49.205456 44.3094548,48.8022993 45.1134644,48.8022993 L45.1134644,47.9982897 C43.9062981,47.9982897 42.6991317,49.205456 42.6991317,50.0140732 C42.6991317,50.8157791 42.6991317,51.2212395 41.8905146,51.2212395 C41.086505,51.2212395 40.6833483,50.4126224 39.8770349,50.4126224 C39.4738782,50.4126224 39.4738782,51.2212395 39.0707215,51.2212395 C38.6675648,51.2212395 38.6675648,50.4126224 37.8635552,50.4126224 C37.4603985,50.4126224 37.4603985,51.2212395 37.0572418,51.2212395 C36.6540851,51.2212395 36.6540851,50.4126224 35.8500755,50.4126224 C35.4469188,50.4126224 35.4469188,51.2212395 34.2397524,51.2212395 L27.7938528,51.2212395 L27.7938528,52.0275529 L33.0302824,52.0275529 L33.0302824,55.2481989 L32.2262727,55.2481989 L32.2262727,53.6378759 L30.2104892,53.6378759 L30.2104892,55.2481989 L29.4041759,55.2481989 Z" id="Fill-8"></path>
                <path d="M64.4486291,38.7328274 C64.4486291,52.8317929 52.7686037,64.5118183 38.2664815,64.5118183 L38.2664815,63.3046519 C51.9622903,63.3046519 63.2414627,52.4286362 63.2414627,38.7328274 C63.2414627,25.0393223 51.9622903,14.1610028 38.2664815,14.1610028 C24.9738294,14.1610028 13.6969607,25.0393223 13.6969607,38.7328274 C13.6969607,52.4286362 24.9738294,63.3046519 38.2664815,63.3046519 L38.2664815,64.5118183 C24.1698197,64.5118183 12.4851869,52.8317929 12.4851869,38.7328274 C12.4851869,24.2330089 24.1698197,12.5506798 38.2664815,12.5506798 C52.7686037,12.5506798 64.4486291,24.2330089 64.4486291,38.7328274" id="Fill-10"></path>
                <path d="M65.2540209,38.7328274 C65.2540209,23.8298522 53.1708389,12.1475231 38.26556,12.1475231 C23.7634378,12.1475231 11.6802557,23.8298522 11.6802557,38.7328274 C11.6802557,53.2349496 23.7634378,65.3181316 38.26556,65.3181316 L38.26556,65.7212883 C23.3625848,65.7212883 11.277099,53.6381063 11.277099,38.7328274 C11.277099,23.4266955 23.3625848,11.3435135 38.26556,11.3435135 C53.5739956,11.3435135 65.6571776,23.4266955 65.6571776,38.7328274 C65.6571776,53.6381063 53.5739956,65.7212883 38.26556,65.7212883 L38.26556,65.3181316 C53.1708389,65.3181316 65.2540209,53.2349496 65.2540209,38.7328274" id="Fill-12"></path>
                <path d="M75.3239537,38.7328274 C75.3239537,59.2753887 58.8083517,75.7909907 38.2657904,75.7909907 L38.2657904,76.998157 C59.6169689,76.998157 76.9342767,59.6785454 76.9342767,38.7328274 C76.9342767,17.3839526 59.6169689,0.467497769 38.2657904,0.467497769 C17.3200723,0.467497769 0.000460750507,17.3839526 0.000460750507,38.7328274 C0.000460750507,59.6785454 17.3200723,76.998157 38.2657904,76.998157 L38.2657904,75.7909907 C18.1263857,75.7909907 1.61078377,59.2753887 1.61078377,38.7328274 C1.61078377,18.190266 18.1263857,1.6746641 38.2657904,1.6746641 C58.8083517,1.6746641 75.3239537,18.190266 75.3239537,38.7328274" id="Fill-14"></path>
                <path d="M74.5185618,38.7328274 C74.5185618,18.5934227 58.4061165,2.48097748 38.2667119,2.48097748 C18.5281601,2.48097748 2.01255822,18.5934227 2.01255822,38.7328274 C2.01255822,58.4690754 18.5281601,74.9846773 38.2667119,74.9846773 L38.2667119,74.1806676 C18.9313168,74.1806676 2.8188716,58.4690754 2.8188716,38.7328274 C2.8188716,18.9965794 18.9313168,2.88183043 38.2667119,2.88183043 C58.0029598,2.88183043 74.1154051,18.9965794 74.1154051,38.7328274 C74.1154051,58.4690754 58.0029598,74.1806676 38.2667119,74.1806676 L38.2667119,74.9846773 C58.4061165,74.9846773 74.5185618,58.4690754 74.5185618,38.7328274" id="Fill-16"></path>
                <path d="M31.8226553,5.30030984 L34.6424484,10.1335827 C34.2392917,10.5367394 33.836135,10.5367394 33.4329783,10.5367394 L32.6289687,9.73042596 L31.0140381,10.1335827 L31.4171948,8.52325963 L32.225812,8.52325963 L31.4171948,7.31378955 L31.4171948,8.52325963 L31.0140381,10.1335827 L31.0140381,10.939896 C30.6131852,10.939896 30.2100285,11.3430527 29.8068718,11.3430527 L30.2100285,5.70346653 L31.8226553,5.30030984 Z" id="Fill-18"></path>
                <path d="M62.4351493,14.9675466 L60.8248263,16.5778696 C60.4193659,16.5778696 60.4193659,16.9833301 60.4193659,17.384183 L61.628836,18.5936531 L61.227983,19.3976627 L59.6153562,17.384183 L58.8090428,18.1904964 L60.4193659,20.6071328 L61.628836,20.6071328 L63.2414627,18.9968098 L63.2414627,18.5936531 L62.0319926,16.9833301 L62.838306,16.5778696 L64.4486291,18.1904964 L65.2549424,17.384183 L63.2414627,15.3707033 C62.838306,14.9675466 62.4351493,14.9675466 62.4351493,14.9675466" id="Fill-20"></path>
                <path d="M12.8888043,26.246719 C12.4856476,26.246719 12.4856476,26.6498757 12.0824909,27.0530324 L7.25152186,24.636396 L8.86184488,21.4134462 L10.0690112,22.2174558 L8.86184488,24.2309355 L9.66815827,24.636396 L10.4721679,23.0237692 L11.681638,23.4269259 L10.8753246,25.0395527 L12.8888043,26.246719 Z" id="Fill-22"></path>
                <path d="M60.8243656,12.9538365 C61.2275223,12.9538365 61.2275223,13.7601499 60.8243656,13.7601499 L58.4054254,16.9830997 C58.0022687,17.3839526 57.6014158,17.3839526 57.1982591,16.9830997 C56.7951024,16.5776392 56.3919457,16.1744826 56.3919457,16.1744826 C55.988789,16.1744826 55.5879361,15.7736296 55.1847794,15.3704729 C54.7816227,15.3704729 54.7816227,14.9673162 55.1847794,14.5641595 L57.6014158,11.3435135 C58.0022687,10.9403568 58.4054254,10.9403568 58.8085821,11.3435135 L58.4054254,12.5506798 L56.3919457,14.9673162 L57.6014158,15.7736296 L59.6171992,13.3569932 L58.4054254,12.5506798 L58.8085821,11.3435135 L60.8243656,12.9538365 Z" id="Fill-24"></path>
                <path d="M26.1826083,10.536509 L25.3762949,10.9396657 L24.5722853,9.73019559 L25.7794516,9.32934265 C26.1826083,9.32934265 26.1826083,8.92618595 26.1826083,8.92618595 L25.7794516,8.52302926 L25.3762949,8.52302926 L24.1691286,8.92618595 L24.5722853,9.73019559 L25.3762949,10.9396657 L26.1826083,12.9531454 C25.7794516,12.9531454 25.3762949,13.3563021 24.975442,13.3563021 L22.5565018,8.52302926 L25.7794516,6.91270624 C26.1826083,6.91270624 26.585765,6.91270624 26.585765,7.31355918 L27.3897746,8.92618595 C27.3897746,8.92618595 27.3897746,9.32934265 26.9889217,9.32934265 L26.9889217,9.73019559 C27.3897746,9.32934265 27.7929313,9.73019559 27.7929313,9.73019559 C27.7929313,10.1333523 28.5992447,10.9396657 28.5992447,11.3428224 C28.5992447,11.3428224 28.5992447,11.7436753 29.0024014,11.7436753 C28.5992447,11.7436753 28.196088,12.1491358 27.7929313,12.1491358 C27.3897746,12.1491358 27.3897746,12.1491358 27.3897746,11.7436753 C27.3897746,11.7436753 26.9889217,10.9396657 26.9889217,10.536509 L26.1826083,10.536509 Z" id="Fill-26"></path>
                <polygon id="Fill-28" points="39.0714126 10.133813 39.0714126 8.9266467 36.6547762 8.9266467 36.6547762 4.49422683 35.4476099 4.49422683 35.8507666 10.133813"></polygon>
                <path d="M15.3072837,19.8010498 L16.1135971,20.6073632 C15.7104404,21.4136766 14.904127,22.2176862 14.1001174,23.4271563 L9.66769752,20.2042065 L11.6811772,17.3844134 L12.8883436,18.1907268 L11.2780205,19.8010498 L12.0843339,20.6073632 L13.2915003,18.9947364 L14.5009703,19.3978931 L13.2915003,21.0082161 L14.1001174,21.8168333 L15.3072837,19.8010498 Z" id="Fill-30"></path>
                <path d="M16.9180675,19.8010498 L12.8888043,15.7740904 L13.6974215,15.3709337 L14.9045878,15.7740904 L16.9180675,18.1907268 L18.1252338,16.5781 L16.1117541,14.5646203 L14.9045878,15.7740904 L13.6974215,15.3709337 L15.3077445,13.357454 C15.7109012,12.9542973 16.1117541,12.9542973 16.5149108,13.357454 L19.3347039,16.1749433 C19.7378606,16.5781 19.7378606,16.9812567 19.3347039,17.3844134 L18.5283905,18.1907268 C18.1252338,18.1907268 17.3212242,19.3978931 16.9180675,19.8010498" id="Fill-32"></path>
                <path d="M22.9608104,12.9538365 L23.76482,14.1610028 C22.9608104,14.5641595 21.7513403,15.3704729 20.9450269,16.1744826 L17.7243809,11.3435135 L20.5418702,9.73088671 L21.3481836,10.5372001 L19.3347039,11.7443664 L20.1387135,12.5506798 L21.7513403,11.3435135 L22.1521933,12.5506798 L20.5418702,13.7601499 L21.3481836,14.5641595 L22.9608104,12.9538365 Z" id="Fill-34"></path>
                <path d="M41.489892,10.133813 L42.2962054,4.49422683 L43.1002151,4.89738352 L43.5033718,6.10454985 L42.6970584,9.32749965 L44.7105381,9.32749965 L45.1136948,6.51001029 L43.5033718,6.10454985 L43.1002151,4.89738352 L45.9200082,5.30054021 C46.3231649,5.30054021 46.3231649,5.70369691 46.3231649,6.10454985 L45.5168515,10.133813 C45.5168515,10.5369697 45.1136948,10.9401264 44.7105381,10.5369697 L43.5033718,10.5369697 C43.5033718,10.5369697 41.890745,10.133813 41.489892,10.133813" id="Fill-36"></path>
                <path d="M50.3517369,11.3430527 L49.9485802,12.5502191 C49.1422668,12.1493661 47.9327968,11.7439057 46.7256304,11.3430527 L48.7391101,6.10662323 L51.9620599,7.31378955 L51.5589032,8.52325963 L49.5431198,7.71694625 L49.1422668,8.52325963 L50.7548936,9.32726927 L50.3517369,10.5367394 L48.7391101,9.73042596 L48.3359534,10.5367394 L50.3517369,11.3430527 Z" id="Fill-38"></path>
                <path d="M52.7679126,11.3430527 L53.574226,10.5367394 L54.7813923,10.939896 C54.7813923,11.3430527 55.184549,10.939896 55.184549,10.939896 L55.184549,10.5367394 L55.184549,10.1335827 L53.9750789,9.73042596 L53.574226,10.5367394 L52.7679126,11.3430527 L51.9615992,13.3565325 C51.5607462,13.3565325 51.1552858,12.9533758 50.7544329,12.9533758 L53.574226,8.12010294 L56.794872,9.73042596 C56.794872,9.73042596 57.1980287,10.1335827 56.794872,10.5367394 L55.5877057,12.5502191 C55.5877057,12.5502191 55.184549,12.9533758 55.184549,12.5502191 L52.7679126,11.3430527 Z" id="Fill-40"></path>
                <path d="M62.0324534,22.2183773 L66.4625695,18.9954275 L66.8657262,20.2048976 L62.4356101,23.0246907 C62.4356101,23.0246907 62.4356101,22.621534 62.0324534,22.621534 L62.0324534,22.2183773 Z" id="Fill-42"></path>
                <path d="M68.0731229,24.2320874 L64.0461635,26.2478709 L64.0461635,25.4392538 C63.6430068,25.4392538 63.6430068,25.0384008 63.6430068,25.0384008 L67.2668095,23.0249211 L66.8659566,22.2186077 L68.0731229,21.4122943 L69.6857497,24.6352441 L68.4785834,25.0384008 L68.0731229,24.2320874 Z" id="Fill-44"></path>
                <polygon id="Fill-46" points="7.65352667 29.0655906 7.65352667 30.2727569 9.2638497 31.0813741 7.65352667 31.482227 7.65352667 32.6916971 6.84721329 31.482227 5.23689026 31.8853837 6.04320365 30.6782174 5.64004696 29.4687473 6.84721329 29.871904"></polygon>
                <polygon id="Fill-48" points="69.2812108 29.0655906 69.2812108 30.2727569 67.6708877 31.0813741 69.2812108 31.482227 69.2812108 32.6916971 70.0898279 31.482227 71.7001509 31.8853837 70.4906808 30.6782174 71.2969942 29.4687473 70.0898279 29.871904"></polygon>
                <path d="M25.7799124,68.5399296 L25.7799124,68.9430863 L24.1695894,68.1367729 L25.3767557,65.3192835 L26.9870787,66.1232932 L26.9870787,66.5264498 L27.7933921,66.9296065 L28.1965488,66.1232932 C28.1965488,65.7201365 28.1965488,65.3192835 27.7933921,65.3192835 C27.3902354,64.9161268 26.5862258,64.9161268 26.5862258,64.5129701 C26.5862258,64.5129701 26.1830691,64.5129701 25.3767557,64.1098134 C24.973599,64.1098134 24.572746,64.1098134 24.572746,64.5129701 L22.9601193,68.1367729 C22.5569626,68.5399296 22.9601193,68.9430863 23.363276,69.3485467 L25.3767557,70.1525563 C25.7799124,70.555713 26.5862258,70.1525563 26.5862258,69.7493996 L26.9870787,69.3485467 L25.7799124,68.5399296 Z" id="Fill-50"></path>
                <polygon id="Fill-52" points="10.0697023 37.5247396 4.43241988 37.1215829 4.43241988 35.9144165 10.0697023 36.3175732 10.0697023 36.7184262"></polygon>
                <path d="M9.66700639,44.3728743 L7.65352667,44.776031 C7.25036998,44.776031 7.25036998,45.1791877 7.25036998,45.5800407 L7.65352667,47.1926674 L6.84721329,47.5935204 L6.04320365,45.1791877 L5.23689026,45.5800407 L5.64004696,48.3998338 C6.04320365,48.8029905 6.04320365,48.8029905 6.44636034,48.8029905 L8.860693,48.3998338 C8.860693,47.9966771 9.2638497,47.9966771 8.860693,47.5935204 L8.45984006,45.9831974 L9.66700639,45.5800407 L10.0701631,47.9966771 L11.2773294,47.5935204 L10.4733198,44.776031 C10.4733198,44.3728743 10.0701631,44.3728743 9.66700639,44.3728743" id="Fill-54"></path>
                <polygon id="Fill-56" points="6.84813479 42.3593946 10.0687808 41.9562379 10.0687808 42.7625513 10.0687808 43.165708 4.83465507 43.566561 4.83465507 42.7625513 8.05530112 39.9404545 4.43149838 40.3436112 4.43149838 39.1364448 10.0687808 38.7332881 10.0687808 39.5372978 10.0687808 39.9404545"></polygon>
                <path d="M8.05622262,53.6374152 C8.05622262,54.0405719 8.45937931,54.0405719 8.862536,54.0405719 L13.2903484,52.0270921 L12.8894954,51.2207788 L8.862536,52.8311018 L8.05622262,51.2207788 L12.083182,49.608152 L11.6800254,48.4009856 L7.24990923,50.4144654 C6.84905629,50.4144654 6.84905629,50.8153183 6.84905629,51.2207788 L8.05622262,53.6374152 Z" id="Fill-58"></path>
                <polygon id="Fill-60" points="13.6964999 62.0965641 14.5028133 61.6934074 15.7099797 60.8893978 16.917146 60.4862411 16.5162931 61.6934074 15.7099797 60.8893978 14.5028133 61.6934074 15.7099797 62.9028775 15.306823 63.7068871 16.1131364 64.5132005 18.9306257 59.6776239 17.7234594 58.4704576 12.8878828 61.2902507"></polygon>
                <path d="M16.1126756,56.0535908 C16.1126756,56.4567475 16.1126756,56.8599042 15.7095189,56.8599042 L14.5023526,58.0670705 L13.6960392,58.0670705 L13.6960392,58.4702272 C13.2905788,58.8733839 12.4865691,59.2742369 12.0834124,59.2742369 C12.0834124,59.6773936 11.6802557,59.6773936 12.0834124,60.0805503 L11.277099,58.8733839 L11.277099,58.4702272 C11.6802557,58.4702272 12.0834124,58.0670705 12.4865691,57.6639138 C12.4865691,57.6639138 12.8897258,57.2607572 12.4865691,57.2607572 L12.0834124,56.0535908 L12.8897258,55.6504341 L13.6960392,56.4567475 C13.6960392,56.8599042 14.0991959,56.8599042 14.0991959,56.8599042 L14.5023526,56.4567475 L14.5023526,56.0535908 L13.6960392,54.8464245 L12.8897258,55.6504341 L12.0834124,56.0535908 L10.0699327,57.6639138 L9.26361932,56.4567475 L14.0991959,53.2337977 C14.5023526,54.4432678 15.3063622,55.2472774 16.1126756,56.0535908" id="Fill-62"></path>
                <path d="M31.8226553,67.7345377 L32.225812,66.5273713 C31.4171948,66.5273713 30.2100285,66.1242147 29.0005584,65.721058 L27.3902354,70.9574875 L31.0140381,71.7638009 L31.0140381,70.9574875 L29.0005584,70.1534778 L29.4037151,69.3471645 L31.0140381,69.7503211 L31.4171948,68.5408511 L29.4037151,68.1376944 L29.8068718,67.331381 L31.8226553,67.7345377 Z" id="Fill-64"></path>
                <path d="M21.3477229,65.3181316 L22.9603496,62.9014952 C23.3635063,62.9014952 23.3635063,62.9014952 23.7643593,63.3046519 L24.1698197,63.3046519 L20.9445662,68.1379247 L20.1405565,67.3316114 L20.1405565,63.3046519 L18.1270768,66.124445 L17.3207634,65.3181316 L20.5414095,60.8880155 C20.5414095,61.2911722 20.9445662,61.2911722 20.9445662,61.2911722 C21.3477229,61.2911722 21.3477229,61.6943289 21.3477229,61.6943289 L21.3477229,65.3181316 Z" id="Fill-66"></path>
                <path d="M41.489892,72.5691927 C41.0867353,72.5691927 40.6812749,72.5691927 40.6812749,72.1660361 L40.280422,68.1367729 C40.280422,67.7336162 40.280422,67.3327632 40.6812749,67.3327632 C41.489892,66.9296065 41.890745,66.9296065 42.2962054,66.9296065 L43.5033718,66.9296065 C43.9065284,66.9296065 44.3096851,66.9296065 44.3096851,67.3327632 L44.7105381,71.3620264 C44.7105381,71.7628794 44.7105381,72.1660361 44.3096851,72.1660361 L43.5033718,71.3620264 L43.1002151,68.1367729 L41.489892,68.5399296 L41.890745,71.3620264 L43.5033718,71.3620264 L44.3096851,72.1660361 L41.489892,72.5691927 Z" id="Fill-68"></path>
                <path d="M53.5733045,62.901956 C53.9764612,62.901956 53.9764612,62.901956 54.3796178,63.3051127 L55.1836275,65.3185924 C55.5867842,65.7217491 55.5867842,65.7217491 55.1836275,66.122602 L53.1701478,67.3320721 L52.3661381,66.122602 L53.5733045,65.3185924 C53.9764612,65.3185924 53.9764612,65.3185924 53.9764612,64.9154357 L53.5733045,64.9154357 C53.5733045,64.512279 53.1701478,64.512279 53.1701478,64.512279 L51.9629814,65.3185924 L52.3661381,66.122602 L53.1701478,67.3320721 L53.9764612,68.9423951 C53.5733045,69.3478556 53.1701478,69.3478556 52.7669911,69.7510123 L50.3526584,64.9154357 C51.1543643,64.512279 52.7669911,63.7082694 53.5733045,62.901956" id="Fill-70"></path>
                <path d="M69.6862104,52.8320233 L65.6569473,50.8162398 L65.2537906,52.0257099 L64.0466242,51.6248569 C64.4497809,50.8162398 65.2537906,49.2059168 65.2537906,48.3996034 L66.4632606,48.8027601 L66.060104,50.0122302 L70.0893671,51.6248569 L69.6862104,52.8320233 Z" id="Fill-72"></path>
                <path d="M38.2660207,71.3611049 L38.2660207,71.7642616 L36.252541,71.3611049 L36.6556977,68.5390081 L38.2660207,68.5390081 L38.2660207,68.9421648 L39.4731871,68.9421648 L39.4731871,68.1381551 C39.4731871,67.7349984 39.0723341,67.3318417 38.6691774,67.3318417 L37.4597074,67.3318417 L36.252541,67.3318417 C35.8493843,67.3318417 35.4462276,67.3318417 35.4462276,67.7349984 L35.0453747,71.7642616 C35.0453747,72.1674183 35.4462276,72.5682712 35.8493843,72.5682712 L38.6691774,72.9714279 C39.0723341,72.9714279 39.4731871,72.5682712 39.4731871,72.1674183 L39.4731871,71.3611049 L38.2660207,71.3611049 Z" id="Fill-74"></path>
                <path d="M48.7386494,65.3181316 C48.7386494,65.3181316 49.1418061,65.3181316 49.1418061,65.7212883 L49.9481195,67.3316114 C49.9481195,67.7347681 49.5449628,68.1379247 49.5449628,68.1379247 C49.9481195,68.1379247 49.9481195,68.1379247 49.9481195,68.5387777 C50.3512762,68.9419344 50.3512762,69.7505515 50.7544329,70.1537082 C50.7544329,70.1537082 50.7544329,70.5545612 51.1552858,70.5545612 L49.5449628,70.9577178 L49.5449628,70.5545612 C49.1418061,70.1537082 49.1418061,69.3473948 49.1418061,69.3473948 C49.1418061,68.9419344 48.7386494,68.9419344 48.3354927,68.9419344 L47.5314831,69.3473948 L47.1283264,68.1379247 L48.3354927,67.7347681 L48.3354927,67.3316114 L48.3354927,66.9284547 L47.932336,66.9284547 L46.7251697,67.3316114 L47.1283264,68.1379247 L47.5314831,69.3473948 L47.932336,71.3608745 L46.7251697,71.7640312 L45.1148467,66.525298 L48.7386494,65.3181316 Z" id="Fill-76"></path>
                <path d="M58.8085821,66.1235235 C58.4054254,66.5266802 58.0022687,66.5266802 57.6014158,66.1235235 L55.1847794,62.9028775 C54.7816227,62.4997208 54.7816227,62.0965641 55.1847794,62.0965641 C55.5879361,61.6934074 56.3919457,61.2902507 56.3919457,60.8893978 C56.3919457,60.8893978 56.7951024,60.4862411 57.1982591,60.0807806 C57.6014158,60.0807806 58.0022687,60.0807806 58.4054254,60.4862411 L60.8243656,63.7068871 C61.2275223,63.7068871 61.2275223,64.1100438 60.8243656,64.5132005 L59.6171992,64.1100438 L57.6014158,61.2902507 L56.3919457,62.4997208 L58.4054254,64.9163572 L59.6171992,64.1100438 L60.8243656,64.5132005 L58.8085821,66.1235235 Z" id="Fill-78"></path>
                <path d="M61.2270615,56.4565171 C61.2270615,56.0533604 61.6302182,56.0533604 61.6302182,56.4565171 L63.2405412,57.6636835 L63.2405412,58.0668402 L64.0468546,58.0668402 C64.0468546,58.4699969 64.8508642,59.2763102 64.8508642,59.2763102 C65.2540209,59.2763102 65.2540209,59.6771632 65.6571776,59.2763102 L64.8508642,60.4857803 C64.4477076,60.4857803 64.4477076,60.4857803 64.4477076,60.0803199 C64.0468546,60.0803199 63.6436979,59.6771632 63.2405412,59.2763102 L62.8373845,59.2763102 L62.0333749,60.4857803 L61.2270615,59.2763102 L62.0333749,58.4699969 L62.0333749,58.0668402 L61.6302182,57.6636835 C61.6302182,57.6636835 61.2270615,57.6636835 61.2270615,58.0668402 L60.4184444,58.8731535 L61.2270615,59.2763102 L62.0333749,60.4857803 L63.6436979,61.6929467 L62.8373845,62.49926 L58.8081213,58.8731535 C59.6167385,58.0668402 60.4184444,57.2628305 61.2270615,56.4565171" id="Fill-80"></path>
                <polygon id="Fill-82" points="66.8650351 57.664605 66.0587217 56.8582916 65.2547121 56.0542819 64.4483987 54.8448119 66.0587217 55.2479686 65.2547121 56.0542819 66.0587217 56.8582916 67.2681918 55.6511253 68.0722014 55.6511253 68.8808186 54.8448119 63.2412324 53.2344888 62.434919 54.4439589 66.0587217 58.8717713"></polygon>
                <path d="M66.0594128,46.3865844 L71.2958423,47.9969075 L70.8949894,49.2063775 L65.6562561,47.5937508 C65.6562561,47.1928978 66.0594128,47.1928978 66.0594128,46.7897411 L66.0594128,46.3865844 Z" id="Fill-84"></path>
                <path d="M70.0889064,36.7193477 L67.2668095,37.1225044 C67.2668095,36.7193477 67.2668095,36.7193477 66.8659566,36.316191 L66.8659566,35.9130343 L72.5055428,35.5121813 L72.5055428,36.7193477 L69.2802892,39.1359841 L72.5055428,39.1359841 L72.5055428,40.3431504 L67.2668095,40.3431504 L67.2668095,39.5391408 L67.2668095,39.1359841 L70.0889064,36.7193477 Z" id="Fill-86"></path>
                <path d="M72.1023861,45.5809622 C72.1023861,45.9841189 71.6992294,45.9841189 71.2960727,45.9841189 L67.2668095,45.5809622 C66.8659566,45.1778055 66.4627999,44.7746488 66.4627999,44.3737958 C66.4627999,43.9706391 66.8659566,43.5674825 66.8659566,43.1643258 L66.8659566,41.9571594 C66.8659566,41.551699 67.2668095,41.1485423 67.6699662,41.551699 L71.6992294,41.9571594 C72.1023861,41.9571594 72.5055428,42.3603161 72.5055428,42.7611691 L71.2960727,43.1643258 L68.0731229,42.7611691 L67.6699662,44.3737958 L70.8952198,44.7746488 L71.2960727,43.1643258 L72.5055428,42.7611691 L72.1023861,45.5809622 Z" id="Fill-88"></path>
                <path d="M30.2095677,27.4548068 C30.6127244,27.4548068 31.0158811,27.0516502 31.0158811,26.6484935 C31.0158811,26.2476405 30.6127244,26.2476405 30.2095677,26.2476405 C29.8064111,26.2476405 29.8064111,26.2476405 29.8064111,26.6484935 C29.8064111,27.0516502 29.8064111,27.4548068 30.2095677,27.4548068" id="Fill-90"></path>
                <path d="M30.2095677,27.0521109 L28.196088,34.7051768 L28.5992447,34.7051768 L30.2095677,29.0655906 L30.2095677,34.7051768 L30.6127244,34.7051768 L30.6127244,29.0655906 L31.8221945,34.7051768 L28.196088,34.7051768 C28.5992447,35.5114902 29.4032544,35.9146469 30.2095677,35.9146469 C31.0158811,35.9146469 32.2253512,35.5114902 32.6285079,34.7051768 L30.6127244,27.0521109 L30.2095677,27.0521109 Z" id="Fill-92"></path>
                <path d="M38.2660207,23.4264652 L39.4731871,23.8296219 C38.6691774,23.8296219 38.6691774,24.6359352 38.6691774,25.4399449 C38.6691774,25.4399449 39.0723341,25.8431016 39.4731871,25.8431016 C39.8763438,25.8431016 40.6826572,25.4399449 41.4889705,25.4399449 C42.6984406,25.4399449 43.9056069,25.8431016 44.7119203,25.8431016 C45.9190867,25.8431016 46.3222434,25.4399449 46.3222434,25.4399449 C46.7254001,25.4399449 47.1285567,25.8431016 47.1285567,26.2462583 C47.1285567,26.649415 46.7254001,26.649415 46.3222434,26.649415 C46.3222434,26.649415 45.9190867,26.2462583 44.7119203,26.2462583 C43.9056069,26.2462583 42.6984406,26.649415 41.4889705,26.649415 C40.6826572,26.649415 39.8763438,26.2462583 39.4731871,26.2462583 C39.0723341,26.2462583 38.6691774,26.649415 38.6691774,27.0525717 L39.0723341,27.4557283 L38.2660207,29.0660514 L37.4597074,27.4557283 L38.2660207,27.0525717 C38.2660207,26.649415 37.862864,26.2462583 37.4597074,26.2462583 C37.0588544,26.2462583 36.252541,26.649415 35.4462276,26.649415 C34.2390613,26.649415 33.031895,26.2462583 32.2255816,26.2462583 C31.0161115,26.2462583 30.6129548,26.649415 30.2097981,26.649415 C30.2097981,26.649415 29.4034847,26.649415 29.4034847,26.2462583 C29.4034847,25.8431016 30.2097981,25.4399449 30.2097981,25.4399449 C30.6129548,25.4399449 31.0161115,25.8431016 32.2255816,25.8431016 C33.031895,25.8431016 34.2390613,25.4399449 35.4462276,25.4399449 C36.252541,25.4399449 37.0588544,25.8431016 37.4597074,25.8431016 C37.862864,25.8431016 38.2660207,25.4399449 38.2660207,25.4399449 C38.2660207,24.6359352 37.862864,23.8296219 37.4597074,23.8296219 L38.2660207,23.4264652 Z" id="Fill-94"></path>
                <path d="M46.7251697,27.4548068 C46.322013,27.4548068 45.9188563,27.0516502 45.9188563,26.6484935 C45.9188563,26.2476405 46.322013,26.2476405 46.7251697,26.2476405 C47.1283264,26.2476405 47.1283264,26.2476405 47.1283264,26.6484935 C47.1283264,27.0516502 47.1283264,27.4548068 46.7251697,27.4548068" id="Fill-96"></path>
                <path d="M46.7251697,27.0521109 L48.7386494,34.7051768 L48.3354927,34.7051768 L46.7251697,29.0655906 L46.7251697,34.7051768 L46.322013,34.7051768 L46.322013,29.0655906 L44.71169,34.7051768 L48.7386494,34.7051768 C48.3354927,35.5114902 47.5314831,35.9146469 46.7251697,35.9146469 C45.9188563,35.9146469 44.71169,35.5114902 44.3085333,34.7051768 L46.322013,27.0521109 L46.7251697,27.0521109 Z" id="Fill-98"></path>
                <path d="M25.3772164,25.0386312 C25.7803731,25.0386312 25.7803731,25.0386312 25.7803731,24.6354745 C25.7803731,24.2323178 25.7803731,24.2323178 25.3772164,24.2323178 C24.9740597,24.2323178 24.9740597,24.2323178 24.9740597,24.6354745 C24.9740597,25.0386312 24.9740597,25.0386312 25.3772164,25.0386312" id="Fill-100"></path>
                <path d="M23.7641289,27.0521109 C23.7641289,27.0521109 24.1695894,26.6489542 24.1695894,26.2457975 L23.7641289,25.8426408 C23.363276,25.8426408 22.9601193,26.2457975 22.9601193,26.2457975 C22.9601193,26.6489542 23.363276,27.0521109 23.7641289,27.0521109" id="Fill-102"></path>
                <path d="M27.3906961,27.0521109 C27.3906961,27.0521109 27.7938528,26.6489542 27.7938528,26.2457975 L27.3906961,25.8426408 C26.9875395,25.8426408 26.5843828,26.2457975 26.5843828,26.2457975 C26.5843828,26.6489542 26.9875395,27.0521109 27.3906961,27.0521109" id="Fill-104"></path>
                <path d="M25.3772164,28.6628947 C25.7803731,28.6628947 25.7803731,28.6628947 25.7803731,28.259738 C25.7803731,27.8565813 25.7803731,27.8565813 25.3772164,27.8565813 C24.9740597,27.8565813 24.9740597,27.8565813 24.9740597,28.259738 C24.9740597,28.6628947 24.9740597,28.6628947 25.3772164,28.6628947" id="Fill-106"></path>
                <path d="M29.0014799,25.0386312 C29.4046366,25.0386312 29.4046366,25.0386312 29.4046366,24.6354745 C29.4046366,24.2323178 29.4046366,24.2323178 29.0014799,24.2323178 C28.5983232,24.2323178 28.5983232,24.2323178 28.5983232,24.6354745 C28.5983232,25.0386312 28.5983232,25.0386312 29.0014799,25.0386312" id="Fill-108"></path>
                <path d="M47.9332575,25.0386312 C48.3364142,25.0386312 48.3364142,25.0386312 48.3364142,24.6354745 C48.3364142,24.2323178 48.3364142,24.2323178 47.9332575,24.2323178 C47.5301008,24.2323178 47.5301008,24.2323178 47.5301008,24.6354745 C47.5301008,25.0386312 47.5301008,25.0386312 47.9332575,25.0386312" id="Fill-110"></path>
                <path d="M51.9625207,25.0386312 C52.3656774,25.0386312 52.3656774,25.0386312 52.3656774,24.6354745 C52.3656774,24.2323178 52.3656774,24.2323178 51.9625207,24.2323178 C51.559364,24.2323178 51.559364,24.2323178 51.559364,24.6354745 C51.559364,25.0386312 51.559364,25.0386312 51.9625207,25.0386312" id="Fill-112"></path>
                <path d="M29.0014799,28.6628947 C29.4046366,28.6628947 29.4046366,28.259738 29.4046366,28.259738 C29.4046366,27.8565813 29.4046366,27.4557283 29.0014799,27.4557283 C28.5983232,27.4557283 28.5983232,27.8565813 28.5983232,28.259738 C28.5983232,28.259738 28.5983232,28.6628947 29.0014799,28.6628947" id="Fill-114"></path>
                <path d="M33.0307431,32.28831 C33.0307431,32.28831 33.4338998,32.28831 33.4338998,31.8851533 C33.4338998,31.4819967 33.0307431,31.4819967 33.0307431,31.4819967 C32.6275864,31.4819967 32.2244297,31.4819967 32.2244297,31.8851533 C32.2244297,32.28831 32.6275864,32.28831 33.0307431,32.28831" id="Fill-116"></path>
                <path d="M35.0444532,33.9002457 C35.0444532,33.9002457 35.4476099,33.9002457 35.4476099,33.497089 C35.4476099,33.0939323 35.0444532,33.0939323 35.0444532,33.0939323 C34.6412965,33.0939323 34.2381398,33.0939323 34.2381398,33.497089 C34.2381398,33.9002457 34.6412965,33.9002457 35.0444532,33.9002457" id="Fill-118"></path>
                <path d="M27.3906961,30.6775263 C27.3906961,30.6775263 27.7938528,30.2743696 27.7938528,29.8712129 L27.3906961,29.4703599 C26.9875395,29.4703599 26.5843828,29.8712129 26.5843828,29.8712129 C26.5843828,30.2743696 26.9875395,30.6775263 27.3906961,30.6775263" id="Fill-120"></path>
                <path d="M25.3772164,32.28831 C25.7803731,32.28831 25.7803731,31.8851533 25.7803731,31.8851533 C25.7803731,31.4819967 25.7803731,31.0811437 25.3772164,31.0811437 C24.9740597,31.0811437 24.9740597,31.4819967 24.9740597,31.8851533 C24.9740597,31.8851533 24.9740597,32.28831 25.3772164,32.28831" id="Fill-122"></path>
                <path d="M27.3906961,34.3020201 C27.3906961,34.3020201 27.7938528,33.9011672 27.7938528,33.4957067 C27.7938528,33.0948538 27.3906961,33.0948538 27.3906961,33.0948538 C26.9875395,33.0948538 26.5843828,33.0948538 26.5843828,33.4957067 C26.5843828,33.9011672 26.9875395,34.3020201 27.3906961,34.3020201" id="Fill-124"></path>
                <path d="M31.0149596,37.9274355 C31.4181163,37.9274355 31.4181163,37.5242788 31.4181163,37.5242788 C31.4181163,37.1211221 31.4181163,36.7202692 31.0149596,36.7202692 C30.6118029,36.7202692 30.6118029,37.1211221 30.6118029,37.5242788 C30.6118029,37.5242788 30.6118029,37.9274355 31.0149596,37.9274355" id="Fill-126"></path>
                <path d="M25.3772164,35.9139558 C25.7803731,35.9139558 25.7803731,35.5107991 25.7803731,35.5107991 C25.7803731,35.1076424 25.7803731,34.7044857 25.3772164,34.7044857 C24.9740597,34.7044857 24.9740597,35.1076424 24.9740597,35.5107991 C24.9740597,35.5107991 24.9740597,35.9139558 25.3772164,35.9139558" id="Fill-128"></path>
                <path d="M25.3772164,39.5382193 C25.7803731,39.5382193 25.7803731,39.5382193 25.7803731,39.1350626 C25.7803731,38.7319059 25.7803731,38.7319059 25.3772164,38.7319059 C24.9740597,38.7319059 24.9740597,38.7319059 24.9740597,39.1350626 C24.9740597,39.5382193 24.9740597,39.5382193 25.3772164,39.5382193" id="Fill-130"></path>
                <path d="M25.3772164,43.1647865 C25.7803731,43.1647865 25.7803731,43.1647865 25.7803731,42.7616298 C25.7803731,42.3584731 25.7803731,42.3584731 25.3772164,42.3584731 C24.9740597,42.3584731 24.9740597,42.3584731 24.9740597,42.7616298 C24.9740597,43.1647865 24.9740597,43.1647865 25.3772164,43.1647865" id="Fill-132"></path>
                <path d="M27.3906961,41.551699 C27.7938528,41.551699 27.7938528,41.1485423 27.7938528,40.7453856 C27.7938528,40.7453856 27.7938528,40.3445327 27.3906961,40.3445327 C26.9875395,40.3445327 26.9875395,40.7453856 26.9875395,40.7453856 C26.9875395,41.1485423 26.9875395,41.551699 27.3906961,41.551699" id="Fill-134"></path>
                <path d="M29.4041759,39.5382193 C29.4041759,39.5382193 29.8073326,39.5382193 29.8073326,39.1350626 C29.8073326,38.7319059 29.4041759,38.7319059 29.4041759,38.7319059 C29.0010192,38.7319059 28.5978625,38.7319059 28.5978625,39.1350626 C28.5978625,39.5382193 29.0010192,39.5382193 29.4041759,39.5382193" id="Fill-136"></path>
                <path d="M27.3906961,37.9274355 C27.7938528,37.9274355 27.7938528,37.5242788 27.7938528,37.1211221 C27.7938528,37.1211221 27.7938528,36.7202692 27.3906961,36.7202692 C26.9875395,36.7202692 26.9875395,37.1211221 26.9875395,37.1211221 C26.9875395,37.5242788 26.9875395,37.9274355 27.3906961,37.9274355" id="Fill-138"></path>
                <path d="M23.7641289,45.1782662 L24.1695894,44.7751095 C24.1695894,44.3719528 23.7641289,43.9710999 23.7641289,43.9710999 C23.363276,43.9710999 22.9601193,44.3719528 22.9601193,44.7751095 C22.9601193,44.7751095 23.363276,45.1782662 23.7641289,45.1782662" id="Fill-140"></path>
                <path d="M33.0307431,28.6628947 L33.4338998,28.259738 C33.4338998,27.8565813 33.0307431,27.4557283 33.0307431,27.4557283 C32.6275864,27.4557283 32.2244297,27.8565813 32.2244297,28.259738 C32.2244297,28.259738 32.6275864,28.6628947 33.0307431,28.6628947" id="Fill-142"></path>
                <path d="M34.6415269,30.6775263 C35.0446836,30.6775263 35.4478403,30.2743696 35.4478403,29.8712129 C35.4478403,29.8712129 35.0446836,29.4703599 34.6415269,29.4703599 C34.2383702,29.4703599 34.2383702,29.8712129 34.2383702,29.8712129 C34.2383702,30.2743696 34.2383702,30.6775263 34.6415269,30.6775263" id="Fill-144"></path>
                <path d="M36.655237,32.28831 C37.0583937,32.28831 37.0583937,31.8851533 37.0583937,31.8851533 C37.0583937,31.4819967 37.0583937,31.0811437 36.655237,31.0811437 C36.2520803,31.0811437 36.2520803,31.4819967 36.2520803,31.8851533 C36.2520803,31.8851533 36.2520803,32.28831 36.655237,32.28831" id="Fill-146"></path>
                <path d="M36.655237,28.6628947 C37.0583937,28.6628947 37.0583937,28.259738 37.0583937,28.259738 C37.0583937,27.8565813 37.0583937,27.4557283 36.655237,27.4557283 C36.2520803,27.4557283 36.2520803,27.8565813 36.2520803,28.259738 C36.2520803,28.259738 36.2520803,28.6628947 36.655237,28.6628947" id="Fill-148"></path>
                <path d="M38.6687167,30.6775263 C38.6687167,30.6775263 39.0718734,30.2743696 39.0718734,29.8712129 L38.6687167,29.4703599 C38.26556,29.4703599 37.8624033,29.8712129 37.8624033,29.8712129 C37.8624033,30.2743696 38.26556,30.6775263 38.6687167,30.6775263" id="Fill-150"></path>
                <path d="M40.2795005,28.6628947 C40.6826572,28.6628947 40.6826572,28.259738 40.6826572,28.259738 C40.6826572,27.8565813 40.6826572,27.4557283 40.2795005,27.4557283 C39.8763438,27.4557283 39.8763438,27.8565813 39.8763438,28.259738 C39.8763438,28.259738 39.8763438,28.6628947 40.2795005,28.6628947" id="Fill-152"></path>
                <path d="M42.2952839,30.6775263 C42.6984406,30.6775263 43.1015973,30.2743696 43.1015973,29.8712129 C43.1015973,29.8712129 42.6984406,29.4703599 42.2952839,29.4703599 L41.8898235,29.8712129 C41.8898235,30.2743696 42.2952839,30.6775263 42.2952839,30.6775263" id="Fill-154"></path>
                <path d="M44.3087636,28.6628947 C44.7119203,28.6628947 44.7119203,28.6628947 44.7119203,28.259738 C44.7119203,27.8565813 44.7119203,27.8565813 44.3087636,27.8565813 C43.9056069,27.8565813 43.9056069,27.8565813 43.9056069,28.259738 C43.9056069,28.6628947 43.9056069,28.6628947 44.3087636,28.6628947" id="Fill-156"></path>
                <path d="M40.6821964,32.28831 C40.6821964,32.28831 41.0876568,32.28831 41.0876568,31.8851533 C41.0876568,31.4819967 40.6821964,31.4819967 40.6821964,31.4819967 C40.2790397,31.4819967 39.875883,31.4819967 39.875883,31.8851533 C39.875883,32.28831 40.2790397,32.28831 40.6821964,32.28831" id="Fill-158"></path>
                <path d="M42.6979799,34.3020201 L43.1011366,33.9011672 C43.1011366,33.4957067 42.6979799,33.0948538 42.6979799,33.0948538 C42.2948232,33.0948538 41.8893627,33.4957067 41.8893627,33.9011672 C41.8893627,33.9011672 42.2948232,34.3020201 42.6979799,34.3020201" id="Fill-160"></path>
                <path d="M44.3087636,32.28831 C44.7119203,32.28831 45.115077,32.28831 45.115077,31.8851533 C45.115077,31.4819967 44.7119203,31.4819967 44.3087636,31.4819967 C43.9056069,31.4819967 43.9056069,31.4819967 43.9056069,31.8851533 C43.9056069,32.28831 43.9056069,32.28831 44.3087636,32.28831" id="Fill-162"></path>
                <path d="M49.949041,27.0521109 C50.3521977,27.0521109 50.3521977,26.6489542 50.3521977,26.6489542 C50.3521977,26.2457975 50.3521977,25.8426408 49.949041,25.8426408 C49.5435805,25.8426408 49.5435805,26.2457975 49.5435805,26.6489542 C49.5435805,26.6489542 49.5435805,27.0521109 49.949041,27.0521109" id="Fill-164"></path>
                <path d="M53.5733045,26.649415 C53.9764612,26.649415 54.3796178,26.649415 54.3796178,26.2462583 C54.3796178,25.8431016 53.9764612,25.8431016 53.5733045,25.8431016 C53.5733045,25.8431016 53.1701478,25.8431016 53.1701478,26.2462583 C53.1701478,26.649415 53.5733045,26.649415 53.5733045,26.649415" id="Fill-166"></path>
                <path d="M51.9625207,28.6628947 C51.9625207,28.6628947 52.3656774,28.6628947 52.3656774,28.259738 C52.3656774,27.8565813 51.9625207,27.8565813 51.9625207,27.8565813 C51.559364,27.8565813 51.1539035,27.8565813 51.1539035,28.259738 C51.1539035,28.6628947 51.559364,28.6628947 51.9625207,28.6628947" id="Fill-168"></path>
                <path d="M49.949041,30.6775263 C50.3521977,30.6775263 50.3521977,30.2743696 50.3521977,30.2743696 C50.3521977,29.8712129 50.3521977,29.4703599 49.949041,29.4703599 C49.5435805,29.4703599 49.1404238,29.8712129 49.1404238,30.2743696 C49.1404238,30.2743696 49.5435805,30.6775263 49.949041,30.6775263" id="Fill-170"></path>
                <path d="M49.949041,34.3020201 C50.3521977,34.3020201 50.3521977,33.9011672 50.3521977,33.9011672 C50.3521977,33.4957067 50.3521977,33.0948538 49.949041,33.0948538 C49.5435805,33.0948538 49.1404238,33.4957067 49.1404238,33.9011672 C49.1404238,33.9011672 49.5435805,34.3020201 49.949041,34.3020201" id="Fill-172"></path>
                <path d="M51.9625207,32.691006 C51.9625207,32.691006 52.3656774,32.2878493 52.3656774,31.8846926 L51.9625207,31.4838397 C51.559364,31.4838397 51.1539035,31.8846926 51.1539035,31.8846926 C51.1539035,32.2878493 51.559364,32.691006 51.9625207,32.691006" id="Fill-174"></path>
                <path d="M52.3652166,36.3166517 C52.3652166,36.3166517 52.7683733,35.913495 52.7683733,35.5103383 L52.3652166,35.1094854 C51.9620599,35.1094854 51.5589032,35.5103383 51.5589032,35.5103383 C51.5589032,35.913495 51.9620599,36.3166517 52.3652166,36.3166517" id="Fill-176"></path>
                <path d="M50.3517369,37.9274355 C50.3517369,37.9274355 50.7548936,37.9274355 50.7548936,37.5242788 C50.7548936,37.1211221 50.3517369,37.1211221 50.3517369,37.1211221 C49.9485802,37.1211221 49.5431198,37.1211221 49.5431198,37.5242788 C49.5431198,37.9274355 49.9485802,37.9274355 50.3517369,37.9274355" id="Fill-178"></path>
                <path d="M46.3224737,37.9274355 C46.7256304,37.9274355 46.7256304,37.9274355 46.7256304,37.5242788 C46.7256304,37.1211221 46.7256304,37.1211221 46.3224737,37.1211221 C45.919317,37.1211221 45.919317,37.1211221 45.919317,37.5242788 C45.919317,37.9274355 45.919317,37.9274355 46.3224737,37.9274355" id="Fill-180"></path>
                <path d="M48.3359534,39.9409152 C48.7391101,39.9409152 48.7391101,39.5377585 48.7391101,39.5377585 C48.7391101,39.1346018 48.7391101,38.7337489 48.3359534,38.7337489 C47.9327968,38.7337489 47.9327968,39.1346018 47.9327968,39.5377585 C47.9327968,39.5377585 47.9327968,39.9409152 48.3359534,39.9409152" id="Fill-182"></path>
                <path d="M49.949041,41.551699 C50.3521977,41.551699 50.3521977,41.1485423 50.3521977,41.1485423 C50.3521977,40.7453856 50.3521977,40.3445327 49.949041,40.3445327 C49.5435805,40.3445327 49.5435805,40.7453856 49.5435805,41.1485423 C49.5435805,41.1485423 49.5435805,41.551699 49.949041,41.551699" id="Fill-184"></path>
                <path d="M51.9625207,43.5674825 C52.3656774,43.5674825 52.7688341,43.1643258 52.7688341,42.7611691 C52.7688341,42.7611691 52.3656774,42.3603161 51.9625207,42.3603161 L51.559364,42.7611691 C51.559364,43.1643258 51.9625207,43.5674825 51.9625207,43.5674825" id="Fill-186"></path>
                <path d="M26.9880002,53.2347192 C27.3911569,53.2347192 27.7943136,53.2347192 27.7943136,52.8315625 C27.7943136,52.4284058 27.3911569,52.4284058 26.9880002,52.4284058 C26.9880002,52.4284058 26.5848435,52.4284058 26.5848435,52.8315625 C26.5848435,53.2347192 26.9880002,53.2347192 26.9880002,53.2347192" id="Fill-188"></path>
                <path d="M31.0149596,49.608152 C31.0149596,49.608152 31.4181163,49.2049953 31.4181163,48.8018386 L31.0149596,48.4009856 C30.6118029,48.4009856 30.2086462,48.8018386 30.2086462,48.8018386 C30.2086462,49.2049953 30.6118029,49.608152 31.0149596,49.608152" id="Fill-190"></path>
                <path d="M32.6280472,47.5946723 C33.0312039,47.5946723 33.0312039,47.5946723 33.0312039,47.1915156 C33.0312039,46.7883589 33.0312039,46.7883589 32.6280472,46.7883589 C32.2248905,46.7883589 32.2248905,46.7883589 32.2248905,47.1915156 C32.2248905,47.5946723 32.2248905,47.5946723 32.6280472,47.5946723" id="Fill-192"></path>
                <path d="M34.6415269,45.9838885 C35.0446836,45.9838885 35.0446836,45.5807318 35.0446836,45.1775751 C35.0446836,45.1775751 35.0446836,44.7767222 34.6415269,44.7767222 C34.2383702,44.7767222 34.2383702,45.1775751 34.2383702,45.1775751 C34.2383702,45.5807318 34.2383702,45.9838885 34.6415269,45.9838885" id="Fill-194"></path>
                <path d="M36.655237,43.9701784 L37.0583937,43.5670217 C37.0583937,43.163865 36.655237,42.7630121 36.655237,42.7630121 C36.2520803,42.7630121 35.8489236,43.163865 35.8489236,43.5670217 C35.8489236,43.5670217 36.2520803,43.9701784 36.655237,43.9701784" id="Fill-196"></path>
                <path d="M38.2660207,41.9566987 C38.6691774,41.9566987 38.6691774,41.9566987 38.6691774,41.5512382 C38.6691774,41.1480815 38.6691774,41.1480815 38.2660207,41.1480815 C37.862864,41.1480815 37.862864,41.1480815 37.862864,41.5512382 C37.862864,41.9566987 37.862864,41.9566987 38.2660207,41.9566987" id="Fill-198"></path>
                <path d="M40.2795005,43.9701784 C40.6826572,43.9701784 40.6826572,43.5670217 40.6826572,43.5670217 C40.6826572,43.163865 40.6826572,42.7630121 40.2795005,42.7630121 C39.8763438,42.7630121 39.8763438,43.163865 39.8763438,43.5670217 C39.8763438,43.5670217 39.8763438,43.9701784 40.2795005,43.9701784" id="Fill-200"></path>
                <path d="M42.2952839,45.5809622 C42.6984406,45.5809622 42.6984406,45.5809622 42.6984406,45.1778055 C42.6984406,44.7746488 42.6984406,44.7746488 42.2952839,44.7746488 C41.8898235,44.7746488 41.8898235,44.7746488 41.8898235,45.1778055 C41.8898235,45.5809622 41.8898235,45.5809622 42.2952839,45.5809622" id="Fill-202"></path>
                <path d="M43.9060677,47.5946723 C44.3092244,47.5946723 44.7123811,47.1915156 44.7123811,47.1915156 C44.7123811,46.7883589 44.3092244,46.3875059 43.9060677,46.3875059 C43.9060677,46.3875059 43.502911,46.7883589 43.502911,47.1915156 L43.9060677,47.5946723 Z" id="Fill-204"></path>
                <path d="M40.2795005,47.5946723 C40.6826572,47.5946723 40.6826572,47.5946723 40.6826572,47.1915156 C40.6826572,46.7883589 40.6826572,46.7883589 40.2795005,46.7883589 C39.8763438,46.7883589 39.8763438,46.7883589 39.8763438,47.1915156 C39.8763438,47.5946723 39.8763438,47.5946723 40.2795005,47.5946723" id="Fill-206"></path>
                <path d="M38.2660207,45.9838885 C38.6691774,45.9838885 39.0723341,45.5807318 39.0723341,45.1775751 C39.0723341,45.1775751 38.6691774,44.7767222 38.2660207,44.7767222 L37.862864,45.1775751 C37.862864,45.5807318 38.2660207,45.9838885 38.2660207,45.9838885" id="Fill-208"></path>
                <path d="M36.655237,47.5946723 C36.655237,47.5946723 37.0583937,47.5946723 37.0583937,47.1915156 C37.0583937,46.7883589 36.655237,46.7883589 36.655237,46.7883589 C36.2520803,46.7883589 35.8489236,46.7883589 35.8489236,47.1915156 C35.8489236,47.5946723 36.2520803,47.5946723 36.655237,47.5946723" id="Fill-210"></path>
                <path d="M34.6415269,49.608152 C35.0446836,49.608152 35.0446836,49.2049953 35.0446836,49.2049953 C35.0446836,48.8018386 35.0446836,48.4009856 34.6415269,48.4009856 C34.2383702,48.4009856 34.2383702,48.8018386 34.2383702,49.2049953 C34.2383702,49.2049953 34.2383702,49.608152 34.6415269,49.608152" id="Fill-212"></path>
                <path d="M38.2660207,49.608152 C38.6691774,49.608152 39.0723341,49.2049953 39.0723341,49.2049953 C39.0723341,48.8018386 38.6691774,48.4009856 38.2660207,48.4009856 C38.2660207,48.4009856 37.862864,48.8018386 37.862864,49.2049953 L38.2660207,49.608152 Z" id="Fill-214"></path>
                <path d="M41.8902842,49.608152 C42.2957447,49.608152 42.6989014,49.2049953 42.6989014,49.2049953 C42.6989014,48.8018386 42.2957447,48.4009856 41.8902842,48.4009856 C41.8902842,48.4009856 41.4894313,48.8018386 41.4894313,49.2049953 L41.8902842,49.608152 Z" id="Fill-216"></path>
                <path d="M47.9332575,51.2212395 C47.9332575,51.2212395 48.3364142,51.2212395 48.3364142,50.8157791 C48.3364142,50.4126224 47.9332575,50.0140732 47.9332575,50.0140732 C47.5301008,50.0140732 47.1269441,50.4126224 47.1269441,50.8157791 C47.1269441,51.2212395 47.5301008,51.2212395 47.9332575,51.2212395" id="Fill-218"></path>
                <path d="M49.949041,53.2347192 C49.949041,53.2347192 50.3521977,52.8315625 50.3521977,52.4284058 C50.3521977,52.0275529 49.949041,52.0275529 49.949041,52.0275529 C49.5435805,52.0275529 49.1404238,52.0275529 49.1404238,52.4284058 C49.1404238,52.8315625 49.5435805,53.2347192 49.949041,53.2347192" id="Fill-220"></path>
                <path d="M47.9332575,54.845503 C48.3364142,54.845503 48.3364142,54.845503 48.3364142,54.4423463 C48.3364142,54.0391896 48.3364142,54.0391896 47.9332575,54.0391896 C47.5301008,54.0391896 47.5301008,54.0391896 47.5301008,54.4423463 C47.5301008,54.845503 47.5301008,54.845503 47.9332575,54.845503" id="Fill-222"></path>
                <path d="M40.2795005,54.845503 C40.6826572,54.845503 41.0881176,54.845503 41.0881176,54.4423463 C41.0881176,54.0391896 40.6826572,54.0391896 40.2795005,54.0391896 C39.8763438,54.0391896 39.8763438,54.0391896 39.8763438,54.4423463 C39.8763438,54.845503 39.8763438,54.845503 40.2795005,54.845503" id="Fill-224"></path>
                <path d="M36.655237,54.845503 C36.655237,54.845503 37.0583937,54.845503 37.0583937,54.4423463 C37.0583937,54.0391896 36.655237,54.0391896 36.655237,54.0391896 C36.2520803,54.0391896 35.8489236,54.0391896 35.8489236,54.4423463 C35.8489236,54.845503 36.2520803,54.845503 36.655237,54.845503" id="Fill-226"></path>
                <path d="M42.2952839,56.8592131 L42.6984406,56.4560564 C42.6984406,56.0528997 42.2952839,55.6520468 42.2952839,55.6520468 C41.8898235,55.6520468 41.4889705,56.0528997 41.4889705,56.4560564 C41.4889705,56.4560564 41.8898235,56.8592131 42.2952839,56.8592131" id="Fill-228"></path>
                <path d="M38.2660207,56.8592131 C38.6691774,56.8592131 39.0723341,56.4560564 39.0723341,56.4560564 C39.0723341,56.0528997 38.6691774,55.6520468 38.2660207,55.6520468 C38.2660207,55.6520468 37.862864,56.0528997 37.862864,56.4560564 L38.2660207,56.8592131 Z" id="Fill-230"></path>
                <path d="M34.6415269,56.8592131 C35.0446836,56.8592131 35.0446836,56.4560564 35.0446836,56.4560564 C35.0446836,56.0528997 35.0446836,55.6520468 34.6415269,55.6520468 C34.2383702,55.6520468 34.2383702,56.0528997 34.2383702,56.4560564 C34.2383702,56.4560564 34.2383702,56.8592131 34.6415269,56.8592131" id="Fill-232"></path>
                <path d="M58.4058862,27.0521109 C59.2145033,27.4552676 60.8248263,29.0655906 60.0162092,30.2727569 C56.3924064,29.0655906 55.5860931,31.8853837 55.5860931,33.4957067 C55.5860931,37.5249699 58.4058862,39.135293 58.4058862,45.9843492 C58.4058862,48.4009856 57.5995728,56.4572083 46.7258608,59.2746976 C44.7123811,59.6778543 41.0862746,60.4864715 38.2664815,62.9031079 L38.2664815,62.0967945 C41.0862746,59.6778543 46.3227041,58.8738447 47.5298704,58.470688 C51.5591336,57.2612179 58.0027295,53.6374152 58.0027295,45.9843492 C58.0027295,41.1487727 55.9892497,37.5249699 53.97577,37.5249699 C53.1717604,37.5249699 53.5726133,38.3312833 53.97577,39.135293 C54.3789267,39.5384496 54.3789267,39.9416063 53.97577,39.9416063 C53.1717604,39.9416063 52.365447,39.9416063 52.365447,40.745616 L52.7686037,40.745616 L53.5726133,40.745616 C54.3789267,40.745616 55.1852401,41.1487727 55.1852401,41.5519294 C55.1852401,42.3605465 54.3789267,41.9573898 54.3789267,42.3605465 C54.3789267,42.7613994 56.7955631,44.3740262 56.7955631,46.7883589 C56.7955631,47.1915156 56.3924064,47.1915156 56.3924064,46.7883589 C56.3924064,46.3875059 55.5860931,45.5811925 55.1852401,45.5811925 C54.7820834,45.5811925 54.7820834,45.9843492 54.7820834,46.3875059 C55.1852401,46.3875059 55.5860931,47.5946723 55.5860931,49.2049953 C55.5860931,50.8153183 54.7820834,52.4302488 53.97577,53.6374152 C53.5726133,54.0405719 53.5726133,53.6374152 53.5726133,53.6374152 C53.1717604,53.2342585 53.1717604,52.8311018 52.7686037,52.8311018 C52.365447,52.8311018 52.7686037,55.6508949 45.9195474,57.6643746 C44.7123811,57.6643746 41.0862746,58.8738447 38.2664815,60.8896281 C35.4466884,58.8738447 32.2260423,57.6643746 31.0142685,57.6643746 C24.1698197,55.6508949 24.5706727,52.8311018 24.1698197,52.8311018 C23.7643593,52.8311018 23.3635063,53.2342585 23.3635063,53.6374152 C23.3635063,53.6374152 23.3635063,54.0405719 22.9603496,53.6374152 C22.1540363,52.4302488 20.9445662,50.8153183 20.9445662,49.2049953 C20.9445662,47.5946723 21.7508796,46.3875059 22.1540363,46.3875059 C22.1540363,45.9843492 22.1540363,45.5811925 21.3477229,45.5811925 C20.9445662,45.5811925 20.5414095,46.3875059 20.5414095,46.7883589 C20.1405565,47.1915156 20.1405565,47.1915156 20.1405565,46.7883589 C20.1405565,44.3740262 22.5548892,42.7613994 22.5548892,42.3605465 C22.5548892,41.9573898 21.7508796,42.3605465 21.7508796,41.5519294 C21.7508796,41.1487727 22.5548892,40.745616 23.3635063,40.745616 L24.1698197,40.745616 L24.5706727,40.745616 C24.5706727,39.9416063 23.7643593,39.9416063 22.9603496,39.9416063 C22.1540363,39.9416063 22.5548892,39.5384496 22.9603496,39.135293 C23.3635063,38.3312833 23.7643593,37.5249699 22.9603496,37.5249699 C20.9445662,37.5249699 18.9310865,41.1487727 18.9310865,45.9843492 C18.9310865,53.6374152 25.3769861,57.2612179 29.4039455,58.470688 C30.2102589,58.8738447 35.8498451,59.6778543 38.2664815,62.0967945 L38.2664815,62.9031079 C35.8498451,60.4864715 32.2260423,59.6778543 30.2102589,59.2746976 C18.9310865,56.4572083 18.5279298,48.4009856 18.5279298,45.9843492 C18.5279298,39.135293 21.3477229,37.5249699 21.3477229,33.4957067 C21.3477229,31.8853837 20.5414095,29.0655906 16.9176067,30.2727569 C16.1135971,29.0655906 17.7239201,27.4552676 18.5279298,27.0521109 C18.1270768,26.2457975 20.9445662,22.6219948 25.7801427,22.6219948 C28.5999359,22.6219948 31.0142685,24.2323178 33.8363654,24.2323178 C35.0435317,24.2323178 37.4601681,23.8291611 38.2664815,23.0228477 L38.2664815,23.4260044 C37.4601681,24.2323178 35.0435317,25.0386312 33.8363654,25.0386312 C31.0142685,25.0386312 28.5999359,23.4260044 25.7801427,23.4260044 C23.3635063,23.4260044 21.7508796,24.2323178 20.5414095,25.4394841 L21.3477229,25.4394841 C21.7508796,25.8426408 21.3477229,26.2457975 21.3477229,25.8426408 C20.9445662,25.8426408 20.5414095,25.4394841 20.1405565,25.4394841 C20.1405565,25.8426408 19.7373998,25.8426408 19.7373998,26.2457975 L21.3477229,26.2457975 C21.7508796,26.6489542 21.3477229,27.0521109 20.9445662,26.6489542 C20.5414095,26.6489542 20.1405565,26.2457975 19.3342432,26.6489542 L19.3342432,27.0521109 L19.3342432,27.8584243 C18.9310865,27.8584243 17.3207634,28.2592772 17.7239201,29.4687473 C18.1270768,29.0655906 21.7508796,29.0655906 21.7508796,33.0948538 C21.7508796,33.9011672 22.1540363,33.4957067 22.1540363,33.4957067 C22.5548892,31.8853837 21.3477229,29.871904 19.7373998,29.0655906 C19.3342432,28.6624339 19.3342432,28.2592772 20.1405565,28.6624339 C20.9445662,29.0655906 22.5548892,30.2727569 22.5548892,32.6916971 L22.5548892,34.3020201 C22.5548892,34.3020201 22.9603496,33.4957067 22.9603496,32.2885404 C22.9603496,29.871904 20.9445662,27.8584243 19.3342432,27.8584243 L19.3342432,27.0521109 C20.1405565,27.0521109 23.7643593,27.8584243 23.7643593,32.6916971 C23.7643593,33.0948538 23.3635063,35.9146469 22.5548892,36.7186565 C23.3635063,36.7186565 24.9738294,36.7186565 23.7643593,39.135293 C25.7801427,39.5384496 25.3769861,41.5519294 24.5706727,41.5519294 C23.7643593,41.5519294 23.7643593,41.1487727 22.9603496,41.1487727 C22.5548892,41.1487727 22.1540363,41.5519294 22.5548892,41.5519294 C22.9603496,41.9573898 23.3635063,41.9573898 23.3635063,42.3605465 C23.3635063,43.1645561 22.1540363,42.7613994 20.9445662,45.1780359 L21.7508796,45.1780359 C22.1540363,45.1780359 22.5548892,45.1780359 22.5548892,45.5811925 C22.5548892,46.3875059 21.7508796,46.7883589 21.7508796,49.2049953 C21.7508796,50.0136124 22.5548892,52.0270921 22.9603496,52.4302488 C23.3635063,52.0270921 23.7643593,52.0270921 24.1698197,52.0270921 C25.3769861,52.0270921 24.9738294,52.8311018 24.9738294,53.2342585 C24.9738294,53.2342585 26.5841524,56.0540516 30.6134156,56.8580612 C32.629199,57.2612179 37.0570114,58.470688 38.2664815,60.081011 C39.8768045,58.470688 44.3092244,57.2612179 46.3227041,56.8580612 C50.3519673,56.0540516 51.9622903,53.2342585 51.9622903,53.2342585 C51.9622903,52.8311018 51.5591336,52.0270921 52.7686037,52.0270921 C53.1717604,52.0270921 53.5726133,52.0270921 53.97577,52.4302488 C53.97577,52.0270921 55.1852401,50.0136124 55.1852401,49.2049953 C55.1852401,46.7883589 54.3789267,46.3875059 54.3789267,45.5811925 C54.3789267,45.1780359 54.7820834,45.1780359 55.1852401,45.1780359 L55.9892497,45.1780359 C54.7820834,42.7613994 53.5726133,43.1645561 53.5726133,42.3605465 C53.5726133,41.9573898 53.97577,41.9573898 54.3789267,41.5519294 C54.7820834,41.5519294 54.3789267,41.1487727 53.97577,41.1487727 C53.1717604,41.1487727 53.1717604,41.5519294 52.365447,41.5519294 C51.5591336,41.5519294 51.1559769,39.5384496 53.1717604,39.135293 C51.9622903,36.7186565 53.5726133,36.7186565 54.3789267,36.7186565 C53.5726133,35.9146469 53.1717604,33.0948538 53.1717604,32.6916971 C53.1717604,29.871904 54.3789267,28.2592772 55.5860931,27.4552676 L55.1852401,27.0521109 C54.7820834,26.6489542 55.1852401,26.2457975 55.1852401,26.6489542 C55.5860931,26.6489542 55.5860931,27.0521109 55.9892497,27.4552676 C56.3924064,27.4552676 56.3924064,27.0521109 56.3924064,27.0521109 L55.9892497,26.6489542 C55.5860931,26.2457975 55.5860931,25.8426408 55.9892497,26.2457975 C56.3924064,26.2457975 56.3924064,26.2457975 56.7955631,27.0521109 L57.5995728,27.0521109 L57.5995728,27.8584243 C55.9892497,27.8584243 53.97577,29.871904 53.97577,32.2885404 C53.97577,33.4957067 54.3789267,34.3020201 54.3789267,34.3020201 L54.3789267,32.6916971 C54.3789267,30.2727569 55.9892497,29.0655906 56.7955631,28.6624339 C57.5995728,28.2592772 57.5995728,28.6624339 57.1987198,29.0655906 C55.5860931,29.871904 54.3789267,31.8853837 54.7820834,33.4957067 C54.7820834,33.4957067 55.1852401,33.9011672 55.1852401,33.0948538 C55.1852401,29.0655906 58.8090428,29.0655906 59.2145033,29.4687473 C59.6153562,28.2592772 58.0027295,27.8584243 57.5995728,27.8584243 L57.5995728,27.0521109 C57.5995728,26.2457975 55.1852401,23.4260044 51.1559769,23.4260044 C48.3361838,23.4260044 45.9195474,25.0386312 43.0997543,25.0386312 C41.8902842,25.0386312 39.4736478,24.2323178 38.2664815,23.4260044 L38.2664815,23.0228477 C39.4736478,23.8291611 41.8902842,24.2323178 43.0997543,24.2323178 C45.9195474,24.2323178 48.3361838,22.6219948 51.1559769,22.6219948 C55.5860931,22.6219948 58.4058862,26.2457975 58.4058862,27.0521109" id="Fill-234"></path>
                <path d="M40.6821964,60.0807806 C41.4908135,59.2744672 44.7114596,58.0673009 47.128096,57.2609875 C48.3352623,57.2609875 47.9321056,57.6641442 47.128096,57.6641442 C44.3083029,58.4704576 41.0876568,60.0807806 40.6821964,60.0807806 C40.6821964,60.4862411 39.875883,60.4862411 40.6821964,60.0807806" id="Fill-236"></path>
                <path d="M37.0579329,60.4857803 C35.8507666,59.6771632 33.0309735,58.4699969 30.6120333,58.0668402 C29.8080237,57.6636835 29.8080237,58.0668402 30.6120333,58.0668402 C33.4341302,58.8731535 35.4476099,59.6771632 36.6547762,60.4857803 C37.0579329,60.888937 37.4610896,60.888937 37.0579329,60.4857803" id="Fill-238"></path>
                <path d="M38.2660207,32.28831 L55.1847794,48.8016082 C55.5879361,48.8016082 55.1847794,48.4007553 55.1847794,47.9975986 L38.2660207,31.4819967 L21.7504188,47.9975986 C21.3472621,48.4007553 21.3472621,48.8016082 21.3472621,48.8016082 L38.2660207,32.28831 Z" id="Fill-240"></path>
                <polygon id="Fill-242" points="38.2660207 39.9409152 51.9618296 53.2358711 52.3649863 52.4295577 38.2660207 38.7337489 24.5725157 52.4295577 24.9733686 53.2358711"></polygon>
                <path d="M38.2660207,38.3301314 L53.1712996,52.429097 C54.378466,53.2354103 55.1847794,50.4133135 55.1847794,49.6093039 L38.2660207,33.0937019 L21.7504188,49.6093039 L23.3630456,50.8164702 L23.3630456,50.0124605 L22.9598889,49.2061472 L23.7638985,48.8029905 L24.169359,48.3998338 L24.5725157,48.8029905 L25.779682,48.3998338 L25.779682,47.5935204 L25.3765253,46.7895108 L26.1828387,46.3863541 L26.5859954,45.9831974 L26.9868483,46.3863541 L28.1963184,45.9831974 L28.1963184,45.1791877 L27.7931617,44.3728743 L28.5994751,44.3728743 L29.0026318,43.566561 L29.4034847,44.3728743 L30.6129548,43.566561 L30.6129548,42.7625513 L30.2097981,42.3593946 L31.0161115,41.9562379 L31.4169645,41.1499245 L31.8224249,41.9562379 L33.031895,41.5507775 L33.031895,40.7467678 L32.2255816,39.9404545 L33.031895,39.5372978 L33.8359046,39.1364448 L34.2390613,39.5372978 L35.4462276,39.1364448 L35.4462276,38.3301314 L34.642218,37.5238181 L35.4462276,37.1229651 L36.252541,36.7198084 L36.6556977,37.1229651 L37.4597074,36.7198084 L37.4597074,35.913495 L37.0588544,35.1094854 L37.862864,35.1094854 L38.2660207,34.3008683 L39.0723341,35.1094854 L39.8763438,35.1094854 L39.0723341,35.913495 L39.0723341,36.7198084 L39.4731871,37.5238181 L40.2795005,37.1229651 L40.6826572,36.7198084 L41.4889705,37.1229651 L42.2952839,37.5238181 L41.4889705,38.3301314 L41.4889705,39.1364448 L42.6984406,39.5372978 L43.1015973,39.1364448 L43.5024503,39.5372978 L44.3087636,39.9404545 L43.9056069,40.7467678 L43.9056069,41.5507775 L45.115077,41.9562379 L45.51593,41.1499245 L45.9190867,41.9562379 L46.7254001,42.3593946 L46.3222434,42.7625513 L46.3222434,43.566561 L47.5294097,44.3728743 L47.9325664,43.566561 L48.3357231,44.3728743 L49.1420365,44.3728743 L48.7388798,45.1791877 L48.7388798,45.9831974 L49.9483498,46.3863541 L50.3515065,45.9831974 L50.7546632,46.3863541 L51.5609766,46.7895108 L51.1555162,47.5935204 L51.1555162,48.3998338 L52.3649863,48.8029905 L52.768143,48.3998338 L53.1712996,48.8029905 L53.9753093,49.2061472 L53.5744563,50.0124605 L53.5744563,50.8164702 L52.768143,50.4133135 L51.9618296,50.8164702 L51.9618296,50.0124605 L51.5609766,49.2061472 L52.3649863,48.8029905 L51.1555162,48.3998338 L50.3515065,47.9966771 L49.5451932,48.3998338 L49.5451932,47.5935204 L49.1420365,46.7895108 L49.9483498,46.3863541 L48.7388798,45.9831974 L47.9325664,45.9831974 L47.1285567,45.9831974 L47.1285567,45.1791877 L46.7254001,44.3728743 L47.5294097,44.3728743 L46.3222434,43.566561 L45.51593,43.566561 L44.7119203,43.566561 L44.7119203,42.7625513 L44.3087636,42.3593946 L45.115077,41.9562379 L43.9056069,41.5507775 L43.1015973,41.1499245 L42.2952839,41.5507775 L42.2952839,40.7467678 L41.8898235,39.9404545 L42.6984406,39.5372978 L41.4889705,39.1364448 L40.6826572,38.7332881 L39.8763438,39.1364448 L39.8763438,38.3301314 L39.4731871,37.5238181 L39.0723341,36.7198084 L38.2660207,36.3166517 L37.4597074,36.7198084 L36.6556977,37.1229651 L37.4597074,37.5238181 L37.0588544,38.3301314 L37.0588544,39.1364448 L36.252541,38.7332881 L35.4462276,39.1364448 L34.2390613,39.5372978 L35.0453747,39.9404545 L34.642218,40.7467678 L34.642218,41.5507775 L33.8359046,41.1499245 L33.031895,41.5507775 L31.8224249,41.9562379 L32.6287383,42.3593946 L32.2255816,42.7625513 L32.2255816,43.566561 L31.4169645,43.566561 L30.6129548,43.566561 L29.4034847,44.3728743 L30.2097981,44.3728743 L29.8066414,45.1791877 L29.8066414,45.9831974 L29.0026318,45.9831974 L28.1963184,45.9831974 L26.9868483,46.3863541 L27.7931617,46.7895108 L27.390005,47.5935204 L27.390005,48.3998338 L26.5859954,47.9966771 L25.779682,48.3998338 L24.5725157,48.8029905 L25.3765253,49.2061472 L24.9733686,50.0124605 L24.9733686,50.8164702 L24.169359,50.4133135 L23.3630456,50.8164702 L21.7504188,49.6093039 C21.7504188,50.4133135 22.5567322,53.2354103 23.7638985,52.429097 L38.2660207,38.3301314 Z" id="Fill-244"></path>
            </g>
        </g>
    </g>
</svg>